<svg width="1328" height="327" viewBox="0 0 1328 327" fill="none" xmlns="http://www.w3.org/2000/svg">
<path d="M315.36 77.4137C307.257 69.1056 297.468 62.5224 286.611 58.0806C275.755 53.6388 264.067 51.4352 252.289 51.6092H246.978C226.633 52.9294 207.371 60.9903 192.405 74.4461C181.953 84.3122 174.215 96.5692 169.901 110.094C165.586 123.618 164.832 137.979 167.708 151.86C172.377 171.007 183.443 188.112 199.177 200.501C201.036 202.178 203.028 203.598 205.019 205.146C210.44 208.357 214.992 212.781 218.298 218.048C219.002 219.926 219.492 221.873 219.758 223.854C219.864 227.475 221.274 230.945 223.742 233.66C227.161 235.422 231.048 236.141 234.895 235.724H244.455H251.227H264.505C269.295 235.821 274.085 235.605 278.846 235.079C281.138 231.798 282.761 228.118 283.626 224.241C284.159 222.007 284.96 219.842 286.016 217.79C289.396 212.581 293.932 208.172 299.293 204.888L302.879 202.05C313.697 194.356 322.555 184.353 328.769 172.812C334.985 161.27 338.393 148.496 338.73 135.474C338.786 113.944 330.434 93.1942 315.36 77.4137ZM306.198 178.051C301.836 182.771 297.036 187.09 291.858 190.954C280.832 197.926 272.66 208.423 268.754 220.629H234.762C232.303 213.199 228.429 206.283 223.343 200.243C221.713 198.688 219.883 197.344 217.899 196.244C216.829 195.63 215.809 194.94 214.845 194.179C203.904 187.29 194.938 177.819 188.785 166.651C182.631 155.482 179.491 142.981 179.658 130.313C180.624 112.88 188.302 96.4373 201.169 84.252C214.932 71.4837 233.261 64.4064 252.289 64.5114H254.015C272.195 64.8514 289.545 71.9645 302.481 84.3807C315.132 96.5016 322.783 112.701 323.991 129.926C324.613 138.766 323.354 147.635 320.293 155.982C317.231 164.329 312.433 171.973 306.198 178.438V178.051Z" fill="#F39619"/>
<path d="M114.064 77.4136C105.648 73.9977 96.6293 72.2012 87.5082 72.1237C75.0707 71.9887 62.8251 75.1082 52.0556 81.1553C41.5652 86.9923 32.7883 95.3431 26.5617 105.411C20.3542 115.788 17.1432 127.6 17.2671 139.602C17.1449 151.523 20.3575 163.251 26.5617 173.536C32.7345 183.746 41.5159 192.234 52.0556 198.178C62.7887 204.325 75.0509 207.494 87.5082 207.339C96.6195 207.299 105.638 205.547 114.064 202.178C120.582 199.557 126.702 196.084 132.255 191.857C133.696 190.769 135.505 190.246 137.323 190.39C139.141 190.533 140.839 191.332 142.081 192.631C142.777 193.348 143.313 194.197 143.652 195.127C143.993 196.055 144.129 197.044 144.054 198.027C143.98 199.01 143.694 199.967 143.217 200.837C142.74 201.708 142.082 202.472 141.284 203.082C134.469 208.323 126.968 212.662 118.977 215.984C99.7008 223.72 78.1919 224.4 58.4387 217.899C38.6856 211.398 22.0288 198.157 11.5575 180.632C3.96058 168.221 -0.0316707 154.042 0.00559818 139.602C-0.171969 125.046 3.87788 110.736 11.6903 98.3149C19.3691 85.9056 30.2664 75.6731 43.2921 68.64C56.5077 61.3063 71.4934 57.5212 86.7114 57.6731C97.9461 57.5944 109.088 59.6545 119.508 63.7372C127.345 66.8472 134.714 70.9701 141.417 75.9943C142.168 76.6035 142.788 77.3507 143.241 78.193C143.695 79.0354 143.972 79.9564 144.059 80.9033C144.145 81.8503 144.038 82.8042 143.744 83.7109C143.451 84.6176 142.975 85.4591 142.347 86.1874C141.071 87.5584 139.311 88.413 137.417 88.5808C135.522 88.7478 133.631 88.2158 132.122 87.09C126.607 83.0462 120.527 79.7881 114.064 77.4136Z" fill="#1D1D1B"/>
<path d="M483.194 69.6721C496.09 76.6305 506.825 86.8277 514.277 99.1979C521.728 111.568 525.622 125.656 525.552 139.989C525.657 154.327 521.761 168.425 514.28 180.784C506.798 193.142 496.01 203.3 483.062 210.178C469.639 217.318 454.545 220.963 439.245 220.758H380.157C379.193 220.775 378.235 220.604 377.341 220.253C376.447 219.902 375.635 219.381 374.953 218.718C374.271 218.056 373.733 217.266 373.373 216.398C373.012 215.529 372.836 214.598 372.854 213.661V66.1886C372.836 65.2459 373.012 64.3092 373.371 63.4333C373.73 62.5573 374.266 61.7598 374.945 61.0871C375.625 60.4144 376.436 59.8802 377.331 59.5155C378.226 59.1508 379.186 58.9631 380.157 58.9632H439.775C454.957 58.8293 469.916 62.5187 483.194 69.6721ZM474.697 197.663C485.164 191.883 493.848 183.487 499.849 173.346C505.849 163.204 508.948 151.687 508.822 139.989C508.987 128.104 505.77 116.406 499.526 106.186C493.368 96.0811 484.578 87.7311 474.042 81.9782C463.505 76.2249 451.595 73.2709 439.51 73.4138H396.621C395.651 73.3966 394.687 73.5675 393.786 73.9165C392.885 74.2654 392.063 74.7854 391.372 75.4461C390.679 76.1067 390.13 76.8948 389.755 77.7643C389.379 78.6337 389.186 79.5671 389.186 80.51V199.34C389.221 201.233 390.019 203.039 391.41 204.366C392.801 205.693 394.672 206.436 396.621 206.436H440.174C452.278 206.532 464.191 203.505 474.697 197.663Z" fill="#1D1D1B"/>
<path d="M568.971 58.9633H665.901C667.85 58.9971 669.707 59.7732 671.074 61.1246C672.439 62.4759 673.204 64.2944 673.204 66.1885C673.204 68.0826 672.439 69.9011 671.074 71.2524C669.707 72.6038 667.85 73.3799 665.901 73.4137H585.436C583.499 73.4137 581.641 74.1614 580.272 75.4922C578.903 76.823 578.133 78.628 578.133 80.51V124.119C578.133 126.002 578.903 127.806 580.272 129.137C581.641 130.468 583.499 131.216 585.436 131.216H655.81C657.747 131.216 659.604 131.963 660.974 133.294C662.343 134.625 663.112 136.43 663.112 138.312C663.13 139.249 662.955 140.18 662.593 141.048C662.233 141.917 661.695 142.707 661.014 143.369C660.332 144.031 659.52 144.554 658.626 144.904C657.731 145.254 656.774 145.426 655.81 145.408H585.436C584.477 145.408 583.527 145.592 582.642 145.948C581.755 146.305 580.95 146.828 580.272 147.487C579.594 148.146 579.056 148.928 578.689 149.789C578.322 150.65 578.133 151.572 578.133 152.504V199.211C578.133 201.092 578.903 202.898 580.272 204.229C581.641 205.559 583.499 206.307 585.436 206.307H668.955C670.892 206.307 672.75 207.055 674.119 208.386C675.489 209.716 676.258 211.521 676.258 213.403C676.258 215.285 675.489 217.09 674.119 218.421C672.75 219.752 670.892 220.499 668.955 220.499H568.971C567.034 220.499 565.177 219.752 563.807 218.421C562.437 217.09 561.668 215.285 561.668 213.403V66.1885C561.668 64.2944 562.433 62.4759 563.799 61.1246C565.165 59.7732 567.022 58.9971 568.971 58.9633Z" fill="#1D1D1B"/>
<path d="M711.445 58.9633H828.023C829 58.9632 829.96 59.1509 830.856 59.5156C831.751 59.8803 832.557 60.4145 833.24 61.0872C833.916 61.7599 834.453 62.5575 834.811 63.4334C835.169 64.3093 835.348 65.246 835.332 66.1887V68.7691C835.348 70.408 834.787 72.0036 833.737 73.2848L732.159 194.824C731.273 195.867 730.713 197.134 730.543 198.477C730.374 199.818 730.603 201.18 731.203 202.399C731.802 203.619 732.748 204.647 733.929 205.363C735.11 206.078 736.477 206.45 737.868 206.436H828.959C830.905 206.436 832.776 207.179 834.168 208.506C835.56 209.833 836.357 211.639 836.39 213.533C836.39 214.475 836.195 215.409 835.82 216.278C835.446 217.147 834.901 217.936 834.209 218.596C833.517 219.257 832.695 219.777 831.792 220.126C830.888 220.475 829.928 220.646 828.959 220.629H708.391C707.427 220.646 706.469 220.474 705.575 220.124C704.681 219.774 703.869 219.251 703.187 218.589C702.506 217.927 701.968 217.137 701.607 216.268C701.246 215.4 701.07 214.469 701.088 213.533V210.694C701.067 209.055 701.63 207.46 702.681 206.178L804.392 84.8971C805.27 83.8625 805.828 82.6071 806.003 81.2768C806.177 79.9464 805.96 78.5953 805.376 77.38C804.792 76.1647 803.866 75.135 802.705 74.4102C801.544 73.6854 800.195 73.2952 798.814 73.2848H711.445C710.458 73.3193 709.473 73.1622 708.549 72.8225C707.624 72.4829 706.779 71.9678 706.062 71.3071C705.345 70.6464 704.771 69.8535 704.373 68.9746C703.975 68.0958 703.76 67.1487 703.743 66.1887C703.743 65.2177 703.944 64.2566 704.334 63.3627C704.724 62.4689 705.296 61.6606 706.015 60.9862C706.734 60.3117 707.585 59.7851 708.518 59.4375C709.451 59.0899 710.446 58.9287 711.445 58.9633Z" fill="#1D1D1B"/>
<path d="M880.608 124.894H882.333C886.451 124.894 889.634 126.829 889.634 129.151V216.629C889.634 218.951 886.451 220.758 882.333 220.758H880.608C876.49 220.758 873.307 218.951 873.307 216.629V129.023C873.307 126.829 876.359 124.894 880.608 124.894Z" fill="#1D1D1B"/>
<path d="M949.388 58.9633H951.244C953.197 58.9971 955.053 59.7732 956.42 61.1246C957.787 62.4759 958.552 64.2944 958.552 66.1885V199.34C958.552 201.222 959.317 203.027 960.693 204.357C962.06 205.689 963.916 206.436 965.853 206.436H1024.54C1026.48 206.436 1028.33 207.183 1029.71 208.515C1031.08 209.846 1031.84 211.65 1031.84 213.532C1031.87 214.469 1031.69 215.4 1031.33 216.268C1030.96 217.137 1030.43 217.927 1029.75 218.589C1029.07 219.251 1028.25 219.774 1027.36 220.124C1026.46 220.474 1025.51 220.646 1024.54 220.628H949.388C948.428 220.628 947.476 220.445 946.597 220.088C945.71 219.732 944.904 219.209 944.228 218.55C943.545 217.891 943.007 217.109 942.641 216.248C942.275 215.387 942.088 214.464 942.088 213.532V66.1885C942.088 64.2944 942.853 62.4759 944.212 61.1246C945.579 59.7732 947.443 58.9971 949.388 58.9633Z" fill="#1D1D1B"/>
<path d="M1071.68 58.9633H1073.41C1075.35 58.9971 1077.22 59.7732 1078.57 61.1246C1079.94 62.4759 1080.71 64.2944 1080.71 66.1885V199.34C1080.71 201.222 1081.48 203.027 1082.85 204.357C1084.21 205.689 1086.08 206.436 1088.02 206.436H1146.83C1148.77 206.436 1150.63 207.183 1151.99 208.515C1153.37 209.846 1154.13 211.65 1154.13 213.532C1154.13 214.464 1153.95 215.387 1153.58 216.248C1153.21 217.109 1152.68 217.891 1151.99 218.55C1151.32 219.209 1150.51 219.732 1149.63 220.088C1148.74 220.445 1147.79 220.628 1146.83 220.628H1071.68C1070.71 220.646 1069.74 220.475 1068.84 220.126C1067.95 219.777 1067.12 219.257 1066.43 218.596C1065.74 217.936 1065.19 217.147 1064.81 216.278C1064.44 215.409 1064.24 214.475 1064.24 213.532V66.1885C1064.24 64.2722 1065.02 62.4345 1066.42 61.0794C1067.82 59.7245 1069.71 58.9633 1071.68 58.9633Z" fill="#1D1D1B"/>
<path d="M1310.82 216.629L1294.89 181.922C1294.3 180.688 1293.36 179.644 1292.18 178.912C1291.01 178.181 1289.64 177.792 1288.24 177.793H1205.25C1203.85 177.819 1202.48 178.233 1201.3 178.986C1200.13 179.741 1199.2 180.803 1198.62 182.051L1182.95 216.5C1182.36 217.767 1181.41 218.843 1180.21 219.598C1179.01 220.354 1177.61 220.756 1176.17 220.758H1174.72C1173.5 220.783 1172.29 220.505 1171.21 219.95C1170.14 219.395 1169.22 218.581 1168.55 217.586C1167.89 216.592 1167.49 215.448 1167.41 214.264C1167.33 213.081 1167.56 211.896 1168.08 210.822L1236.46 63.2209C1237.04 61.9733 1237.97 60.9106 1239.14 60.1569C1240.32 59.4032 1241.69 58.9892 1243.1 58.9633H1250.8C1252.23 58.9647 1253.63 59.3672 1254.83 60.1224C1256.03 60.8776 1256.98 61.9535 1257.57 63.2209L1325.95 210.822C1326.44 211.899 1326.64 213.074 1326.54 214.244C1326.44 215.414 1326.04 216.542 1325.39 217.526C1324.73 218.511 1323.83 219.321 1322.77 219.885C1321.71 220.449 1320.52 220.749 1319.32 220.758H1317.45C1316.05 220.775 1314.68 220.393 1313.5 219.66C1312.32 218.926 1311.39 217.872 1310.82 216.629ZM1217.87 163.342H1274.7C1275.92 163.355 1277.13 163.071 1278.2 162.516C1279.28 161.961 1280.2 161.153 1280.87 160.165C1281.54 159.177 1281.95 158.041 1282.06 156.861C1282.16 155.681 1281.96 154.494 1281.47 153.408L1253.19 90.316C1252.6 89.0802 1251.67 88.0334 1250.5 87.2994C1249.32 86.5662 1247.95 86.176 1246.55 86.176C1245.15 86.176 1243.78 86.5662 1242.61 87.2994C1241.43 88.0334 1240.49 89.0802 1239.92 90.316L1211.5 153.021C1210.93 154.112 1210.65 155.33 1210.71 156.555C1210.76 157.779 1211.14 158.969 1211.81 160.009C1212.48 161.048 1213.41 161.901 1214.52 162.485C1215.63 163.07 1216.88 163.365 1218.14 163.342H1217.87Z" fill="#1D1D1B"/>
<path d="M881.536 81.5424C887.55 81.5424 892.425 76.8055 892.425 70.9625C892.425 65.1193 887.55 60.3826 881.536 60.3826C875.521 60.3826 870.646 65.1193 870.646 70.9625C870.646 76.8055 875.521 81.5424 881.536 81.5424Z" fill="#F39619"/>
<path d="M227.459 114.056C231.126 114.056 234.098 111.167 234.098 107.605C234.098 104.042 231.126 101.154 227.459 101.154C223.793 101.154 220.82 104.042 220.82 107.605C220.82 111.167 223.793 114.056 227.459 114.056Z" fill="#F39619"/>
<path d="M275.393 114.056C279.06 114.056 282.032 111.167 282.032 107.605C282.032 104.042 279.06 101.154 275.393 101.154C271.727 101.154 268.754 104.042 268.754 107.605C268.754 111.167 271.727 114.056 275.393 114.056Z" fill="#F39619"/>
<path d="M283.094 264.238C282.714 262.707 281.746 261.374 280.39 260.51C279.033 259.648 277.389 259.319 275.791 259.594H273.402C272.429 259.658 271.453 259.658 270.481 259.594H257.202C246.182 259.594 234.762 258.561 227.857 258.045H225.733C225.128 258.004 224.52 258.087 223.948 258.287C223.376 258.487 222.854 258.8 222.413 259.206C221.933 259.73 221.568 260.343 221.339 261.009C221.111 261.674 221.025 262.378 221.086 263.077C220.944 263.452 220.944 263.863 221.086 264.238C224.516 266.715 228.792 267.824 233.036 267.334H240.339C248.704 267.334 262.248 268.625 271.808 269.012H273.932H277.119C278.392 269.143 279.668 268.824 280.718 268.112C281.767 267.401 282.516 266.346 282.829 265.141L283.094 264.238Z" fill="#F39619"/>
<path d="M228.123 253.4H232.372L263.708 254.949H267.824C270.389 255.077 272.961 255.077 275.526 254.949C277.252 254.949 282.829 254.949 283.094 250.949C283.148 250.428 283.08 249.904 282.896 249.412C282.712 248.92 282.417 248.476 282.032 248.111C280.173 246.304 276.19 245.401 268.754 245.401H262.513L249.235 244.626C242.065 244.626 235.16 243.724 229.981 243.724H225.733C225.154 243.652 224.565 243.697 224.005 243.856C223.444 244.015 222.924 244.284 222.475 244.648C222.027 245.01 221.66 245.46 221.398 245.967C221.136 246.474 220.985 247.028 220.952 247.594C220.952 253.4 225.733 253.4 228.123 253.4Z" fill="#F39619"/>
<path d="M235.692 161.408L237.418 162.827C239.144 164.633 240.472 165.923 241.8 167.084C243.127 168.246 245.119 170.181 247.376 172.632C248.232 173.506 249.262 174.203 250.403 174.679C251.544 175.154 252.773 175.4 254.015 175.4C255.257 175.4 256.486 175.154 257.627 174.679C258.769 174.203 259.799 173.506 260.655 172.632L263.044 170.568L264.505 169.278C268.754 165.407 271.941 162.568 276.323 158.182C278.846 155.602 281.235 153.15 281.369 150.827C281.379 149.067 280.717 147.366 279.509 146.053C278.444 144.99 277.04 144.308 275.526 144.119C270.347 144.119 264.638 150.053 260.123 154.956L257.335 157.923C256.251 158.9 255.273 159.98 254.414 161.149L253.617 162.053C252.82 162.053 251.758 160.117 251.094 159.472C250.708 158.913 250.262 158.394 249.767 157.923C249.103 157.923 248.306 156.504 247.376 155.602C241.401 149.279 236.223 144.119 232.638 144.119C231.241 144.137 229.885 144.584 228.765 145.394C227.645 146.206 226.816 147.339 226.397 148.634C226.195 150.158 226.378 151.708 226.934 153.148C227.489 154.587 228.399 155.872 229.584 156.891C231.46 158.59 233.506 160.102 235.692 161.408Z" fill="#F39619"/>
<path d="M273.8 273.141H229.716C229.496 273.123 229.275 273.149 229.066 273.219C228.857 273.289 228.665 273.4 228.503 273.546C228.341 273.692 228.211 273.869 228.123 274.065C228.035 274.262 227.99 274.475 227.991 274.689C227.908 276.88 228.289 279.064 229.111 281.107C229.933 283.149 231.18 285.005 232.771 286.559C235.348 288.843 238.363 290.611 241.643 291.762C244.924 292.913 248.407 293.425 251.891 293.268C255.469 293.425 259.042 292.878 262.396 291.659C265.751 290.439 268.817 288.573 271.41 286.172C272.893 284.628 274.016 282.791 274.704 280.788C275.391 278.784 275.626 276.66 275.393 274.56C275.334 274.182 275.143 273.836 274.854 273.578C274.564 273.32 274.192 273.166 273.8 273.141Z" fill="#F39619"/>
<path d="M252.289 39.7389C251.748 39.74 251.227 39.5403 250.832 39.1806C250.437 38.821 250.198 38.3285 250.165 37.8036V2.06436C250.165 1.51686 250.389 0.991776 250.787 0.604638C251.185 0.217494 251.726 0 252.289 0C252.852 0 253.393 0.217494 253.791 0.604638C254.189 0.991776 254.413 1.51686 254.413 2.06436V37.8036C254.38 38.3285 254.141 38.821 253.747 39.1806C253.351 39.5403 252.83 39.74 252.289 39.7389Z" fill="#F39619"/>
<path d="M308.987 53.1575H307.792C307.317 52.8655 306.981 52.4031 306.858 51.8712C306.733 51.3394 306.83 50.7813 307.128 50.3189L326.115 19.7406C326.415 19.2615 326.898 18.9176 327.458 18.7845C328.018 18.6515 328.61 18.7401 329.103 19.031C329.596 19.3219 329.95 19.7911 330.087 20.3355C330.224 20.8799 330.133 21.4549 329.833 21.934L310.713 51.6092C310.614 52.0036 310.397 52.3608 310.09 52.6362C309.783 52.9116 309.399 53.0929 308.987 53.1575Z" fill="#F39619"/>
<path d="M191.078 53.1573C190.641 53.117 190.228 52.9467 189.895 52.6695C189.562 52.3923 189.326 52.0219 189.219 51.609L170.231 21.6757C169.981 21.2157 169.919 20.681 170.058 20.1785C170.196 19.6761 170.525 19.243 170.978 18.9659C171.431 18.6887 171.975 18.588 172.501 18.6838C173.028 18.7795 173.497 19.0648 173.816 19.4824L192.804 50.0608C193.005 50.2419 193.165 50.4615 193.275 50.7057C193.384 50.9499 193.441 51.2135 193.441 51.4799C193.441 51.7465 193.384 52.01 193.275 52.2543C193.165 52.4985 193.005 52.718 192.804 52.8992L191.078 53.1573Z" fill="#F39619"/>
<path d="M1009.01 325.854L1016.62 277.888H1021.9L1014.28 325.854H1009.01ZM1039.75 326.44C1036.16 326.44 1033.16 325.723 1030.77 324.289C1028.42 322.813 1026.78 320.727 1025.82 318.033C1024.87 315.296 1024.67 312.103 1025.23 308.453C1025.8 305.107 1026.85 302.262 1028.36 299.916C1029.92 297.526 1031.9 295.702 1034.28 294.441C1036.72 293.181 1039.48 292.551 1042.55 292.551C1045.55 292.551 1048.02 293.203 1049.98 294.506C1051.98 295.81 1053.36 297.635 1054.14 299.981C1054.97 302.284 1055.14 304.977 1054.66 308.062L1054.4 309.952H1029.08L1029.6 306.628H1051.47L1050.3 307.541C1050.82 303.978 1050.42 301.241 1049.06 299.329C1047.72 297.417 1045.47 296.462 1042.29 296.462C1040 296.462 1038.02 296.983 1036.37 298.026C1034.72 299.025 1033.4 300.415 1032.4 302.197C1031.4 303.934 1030.73 305.911 1030.38 308.127L1030.18 309.691C1029.62 313.689 1030.18 316.773 1031.88 318.946C1033.62 321.074 1036.42 322.139 1040.27 322.139C1042.19 322.139 1044.05 321.856 1045.87 321.292C1047.7 320.683 1049.39 319.706 1050.95 318.359L1052.78 322.074C1051.04 323.464 1049.05 324.55 1046.79 325.332C1044.53 326.071 1042.19 326.44 1039.75 326.44ZM1071.98 326.44C1068.47 326.44 1065.99 325.506 1064.56 323.638C1063.17 321.77 1062.75 318.989 1063.32 315.296L1066.12 297.244H1059.74L1060.39 293.138H1066.84L1068.27 284.21L1073.74 282.711L1072.11 293.138H1081.49L1080.77 297.244H1071.4L1068.73 314.644C1068.29 317.208 1068.42 319.076 1069.12 320.249C1069.85 321.379 1071.11 321.943 1072.89 321.943C1073.72 321.943 1074.46 321.878 1075.11 321.748C1075.76 321.574 1076.36 321.379 1076.93 321.161L1076.28 325.593C1075.58 325.854 1074.89 326.049 1074.2 326.179C1073.5 326.353 1072.76 326.44 1071.98 326.44ZM1089.42 293.985L1087.27 291.704C1088.57 290.531 1089.43 289.488 1089.87 288.576C1090.34 287.62 1090.67 286.599 1090.85 285.513L1092.28 286.556H1087.53L1088.57 279.908H1095.28L1094.43 285.122C1094.25 286.295 1093.97 287.381 1093.58 288.38C1093.23 289.38 1092.74 290.336 1092.09 291.248C1091.43 292.16 1090.54 293.073 1089.42 293.985ZM1106.62 326.44C1104.15 326.44 1101.82 326.114 1099.65 325.463C1097.48 324.768 1095.76 323.855 1094.51 322.725L1096.4 319.011C1097.83 320.053 1099.43 320.879 1101.22 321.487C1103.04 322.052 1104.94 322.334 1106.95 322.334C1109.46 322.334 1111.46 321.878 1112.94 320.966C1114.41 320.053 1115.28 318.815 1115.54 317.251C1115.75 315.904 1115.48 314.797 1114.7 313.927C1113.95 313.015 1112.68 312.406 1110.85 312.103L1106.17 311.386C1102.95 310.864 1100.71 309.734 1099.46 307.997C1098.2 306.259 1097.77 304.13 1098.16 301.61C1098.46 299.698 1099.22 298.069 1100.44 296.722C1101.69 295.376 1103.28 294.354 1105.19 293.659C1107.09 292.92 1109.2 292.551 1111.5 292.551C1113.89 292.551 1116.04 292.877 1117.95 293.529C1119.9 294.137 1121.44 294.963 1122.57 296.005L1120.55 299.655C1119.42 298.699 1118.06 297.961 1116.45 297.439C1114.89 296.875 1113.24 296.592 1111.5 296.592C1109.03 296.592 1107.08 297.091 1105.64 298.091C1104.21 299.09 1103.37 300.35 1103.11 301.871C1102.89 303.261 1103.11 304.434 1103.76 305.39C1104.41 306.302 1105.58 306.889 1107.27 307.15L1112.09 307.997C1115.39 308.561 1117.69 309.648 1118.99 311.255C1120.34 312.819 1120.82 314.84 1120.42 317.316C1120.16 319.184 1119.4 320.813 1118.15 322.204C1116.93 323.551 1115.35 324.593 1113.39 325.332C1111.44 326.071 1109.18 326.44 1106.62 326.44ZM1158.82 326.44C1155.57 326.44 1152.82 325.745 1150.55 324.355C1148.3 322.921 1146.7 320.879 1145.74 318.229C1144.82 315.535 1144.65 312.341 1145.22 308.649C1146.09 303.392 1148.1 299.394 1151.27 296.657C1154.44 293.92 1158.33 292.551 1162.93 292.551C1165.01 292.551 1166.96 292.877 1168.79 293.529C1170.66 294.181 1172.17 295.136 1173.34 296.396L1171.26 300.046C1170.14 298.96 1168.83 298.156 1167.35 297.635C1165.92 297.113 1164.51 296.853 1163.12 296.853C1159.86 296.853 1157.11 297.895 1154.85 299.981C1152.64 302.066 1151.21 305.129 1150.55 309.17C1149.9 313.298 1150.38 316.491 1151.99 318.75C1153.64 320.966 1156.14 322.074 1159.47 322.074C1161 322.074 1162.58 321.791 1164.23 321.226C1165.88 320.662 1167.4 319.728 1168.79 318.424L1170.67 322.204C1169.29 323.507 1167.48 324.55 1165.27 325.332C1163.1 326.071 1160.96 326.44 1158.82 326.44ZM1176.67 325.854L1180.64 301.024C1180.86 299.72 1181.03 298.395 1181.16 297.048C1181.29 295.702 1181.38 294.398 1181.42 293.138H1186.57L1186.05 301.089L1185.01 301.154C1185.75 299.199 1186.72 297.591 1187.94 296.331C1189.2 295.071 1190.63 294.137 1192.23 293.529C1193.84 292.877 1195.47 292.551 1197.12 292.551C1197.69 292.551 1198.21 292.573 1198.68 292.617C1199.2 292.66 1199.7 292.747 1200.18 292.877L1199.26 297.635C1198.74 297.417 1198.21 297.287 1197.64 297.244C1197.12 297.156 1196.51 297.113 1195.81 297.113C1193.86 297.113 1192.13 297.526 1190.6 298.352C1189.09 299.177 1187.85 300.307 1186.89 301.74C1185.94 303.174 1185.33 304.781 1185.07 306.563L1182.01 325.854H1176.67ZM1215.31 326.44C1211.71 326.44 1208.71 325.723 1206.33 324.289C1203.99 322.813 1202.33 320.727 1201.38 318.033C1200.42 315.296 1200.22 312.103 1200.79 308.453C1201.36 305.107 1202.4 302.262 1203.92 299.916C1205.48 297.526 1207.45 295.702 1209.84 294.441C1212.27 293.181 1215.03 292.551 1218.11 292.551C1221.11 292.551 1223.58 293.203 1225.54 294.506C1227.53 295.81 1228.92 297.635 1229.7 299.981C1230.53 302.284 1230.7 304.977 1230.22 308.062L1229.96 309.952H1204.64L1205.16 306.628H1227.03L1225.86 307.541C1226.38 303.978 1225.97 301.241 1224.62 299.329C1223.27 297.417 1221.02 296.462 1217.85 296.462C1215.55 296.462 1213.57 296.983 1211.93 298.026C1210.28 299.025 1208.95 300.415 1207.96 302.197C1206.96 303.934 1206.28 305.911 1205.94 308.127L1205.74 309.691C1205.17 313.689 1205.74 316.773 1207.44 318.946C1209.17 321.074 1211.97 322.139 1215.84 322.139C1217.74 322.139 1219.61 321.856 1221.43 321.292C1223.26 320.683 1224.95 319.706 1226.51 318.359L1228.34 322.074C1226.59 323.464 1224.6 324.55 1222.35 325.332C1220.08 326.071 1217.74 326.44 1215.31 326.44ZM1248.38 326.44C1245.39 326.44 1242.87 325.745 1240.83 324.355C1238.79 322.921 1237.35 320.879 1236.53 318.229C1235.71 315.579 1235.58 312.385 1236.14 308.649C1237.01 303.392 1238.97 299.394 1242 296.657C1245.04 293.92 1248.68 292.551 1252.94 292.551C1255.8 292.551 1258.21 293.29 1260.17 294.767C1262.12 296.244 1263.32 298.243 1263.75 300.763L1263.03 300.893L1264.92 293.138H1270C1269.7 294.398 1269.37 295.68 1269.02 296.983C1268.72 298.243 1268.48 299.481 1268.31 300.698L1264.33 325.854H1259.06L1260.3 318.033H1261.27C1260.14 320.64 1258.47 322.703 1256.26 324.224C1254.09 325.701 1251.47 326.44 1248.38 326.44ZM1249.81 322.139C1252.81 322.139 1255.39 321.074 1257.56 318.946C1259.74 316.817 1261.14 313.71 1261.79 309.626C1262.49 305.368 1262.05 302.175 1260.49 300.046C1258.93 297.873 1256.56 296.787 1253.4 296.787C1250.36 296.787 1247.76 297.852 1245.58 299.981C1243.46 302.109 1242.07 305.216 1241.42 309.3C1240.76 313.558 1241.2 316.773 1242.72 318.946C1244.24 321.074 1246.6 322.139 1249.81 322.139ZM1286.58 326.44C1283.06 326.44 1280.59 325.506 1279.15 323.638C1277.76 321.77 1277.36 318.989 1277.92 315.296L1280.72 297.244H1274.34L1274.99 293.138H1281.43L1282.87 284.21L1288.33 282.711L1286.71 293.138H1296.08L1295.37 297.244H1285.99L1283.32 314.644C1282.89 317.208 1283.02 319.076 1283.71 320.249C1284.45 321.379 1285.71 321.943 1287.49 321.943C1288.31 321.943 1289.05 321.878 1289.7 321.748C1290.35 321.574 1290.96 321.379 1291.53 321.161L1290.87 325.593C1290.18 325.854 1289.48 326.049 1288.79 326.179C1288.1 326.353 1287.36 326.44 1286.58 326.44ZM1312.21 326.44C1308.61 326.44 1305.61 325.723 1303.23 324.289C1300.88 322.813 1299.23 320.727 1298.28 318.033C1297.32 315.296 1297.12 312.103 1297.69 308.453C1298.26 305.107 1299.3 302.262 1300.82 299.916C1302.38 297.526 1304.35 295.702 1306.74 294.441C1309.17 293.181 1311.93 292.551 1315.01 292.551C1318.01 292.551 1320.48 293.203 1322.44 294.506C1324.43 295.81 1325.82 297.635 1326.6 299.981C1327.43 302.284 1327.6 304.977 1327.12 308.062L1326.86 309.952H1301.54L1302.06 306.628H1323.93L1322.76 307.541C1323.28 303.978 1322.87 301.241 1321.52 299.329C1320.17 297.417 1317.92 296.462 1314.75 296.462C1312.45 296.462 1310.47 296.983 1308.83 298.026C1307.18 299.025 1305.85 300.415 1304.86 302.197C1303.86 303.934 1303.18 305.911 1302.84 308.127L1302.64 309.691C1302.07 313.689 1302.64 316.773 1304.34 318.946C1306.07 321.074 1308.87 322.139 1312.73 322.139C1314.64 322.139 1316.51 321.856 1318.33 321.292C1320.16 320.683 1321.85 319.706 1323.41 318.359L1325.24 322.074C1323.49 323.464 1321.5 324.55 1319.25 325.332C1316.98 326.071 1314.64 326.44 1312.21 326.44Z" fill="#3E353F"/>
</svg>
