<svg width="156" height="156" viewBox="0 0 156 156" fill="none" xmlns="http://www.w3.org/2000/svg">
<rect width="156" height="156" rx="78" fill="white"/>
<path fill-rule="evenodd" clip-rule="evenodd" d="M86.4388 98.1958H64.9281C64.9281 98.1958 70.1906 92.7865 70.1906 88.0947C70.1906 81.8339 64.0865 77.4705 64.0865 69.5945C64.0865 63.6002 68.9265 58 68.9265 58H90.4372C90.4372 58 85.1747 63.4093 85.1747 68.1011C85.1747 74.3622 91.2788 78.7253 91.2788 86.6014C91.2788 92.5957 86.4388 98.1958 86.4388 98.1958ZM57.6011 58V98.1958H45.0593L37.0655 78.0733L45.0593 58H57.6011ZM17.4062 58H34.2547V98.1958H17.4062V58ZM97.7641 98.1958V58H110.306L118.3 78.1225L110.306 98.1958H97.7641ZM137.959 98.1958H121.111V58H137.959V98.1958Z" fill="#C35922"/>
</svg>
