<svg xmlns="http://www.w3.org/2000/svg" width="640" height="640" viewBox="0 0 640 640">
<g>
<path d="M 232.00 329.00 L 232.00 354.00 L 220.00 354.00 L 220.00 287.00 L 234.82 287.00 C255.88,287.00 261.54,289.10 266.39,298.70 C268.38,302.65 268.51,312.84 266.63,317.34 C265.88,319.15 263.37,322.24 261.05,324.22 L 256.85 327.82 L 261.06 335.66 C263.38,339.97 266.57,345.86 268.15,348.75 L 271.02 354.00 L 257.17 354.00 L 250.93 342.25 C247.50,335.79 244.20,330.17 243.60,329.77 C242.99,329.36 240.14,329.02 237.25,329.02 ZM 485.00 337.25 L 480.50 353.50 L 468.11 354.09 L 466.09 347.30 C461.49,331.82 454.00,305.49 454.00,304.77 C454.00,304.35 456.68,304.00 459.96,304.00 L 465.92 304.00 L 466.91 307.75 C467.46,309.81 469.34,317.26 471.09,324.31 C472.84,331.36 474.61,336.76 475.02,336.31 C475.42,335.86 476.97,330.77 478.46,325.00 C479.94,319.23 481.83,312.14 482.65,309.25 L 484.14 304.00 L 495.75 304.00 L 498.84 315.25 C500.54,321.44 502.47,328.86 503.14,331.75 C503.80,334.64 504.66,337.00 505.05,337.00 C505.44,337.00 507.18,331.26 508.93,324.25 C510.67,317.24 512.54,309.81 513.09,307.75 L 514.08 304.00 L 520.04 304.00 C523.32,304.00 526.00,304.39 526.00,304.86 C526.00,305.59 521.45,321.52 513.90,347.25 L 511.92 354.00 L 505.93 354.00 C505.47,354.00 505.05,354.01 504.65,354.01 C503.02,354.03 501.88,354.05 500.98,353.60 C498.74,352.50 497.90,348.56 494.22,334.86 C492.17,327.25 490.27,321.02 490.00,321.01 C489.73,321.01 487.48,328.32 485.00,337.25 ZM 308.22 353.96 C303.10,355.38 295.27,355.19 290.62,353.53 C285.40,351.67 279.41,345.63 277.26,340.06 C275.19,334.71 275.03,324.32 276.93,318.66 C278.64,313.55 283.56,308.10 288.49,305.86 C293.47,303.60 305.84,303.34 309.80,305.41 C316.54,308.93 321.03,316.55 321.77,325.70 L 322.27 332.00 L 286.78 332.00 L 287.44 334.75 C289.86,344.95 301.69,349.03 308.26,341.92 C310.84,339.14 311.37,338.98 316.01,339.60 C321.45,340.32 321.71,340.72 319.54,344.93 C317.51,348.85 312.65,352.73 308.22,353.96 ZM 436.78 353.45 C432.45,355.25 422.93,355.37 418.24,353.67 C412.76,351.68 407.91,347.04 405.26,341.26 C403.07,336.47 402.82,334.78 403.21,327.65 C404.09,311.49 411.99,303.59 427.10,303.75 C440.70,303.88 449.00,312.74 449.00,327.13 L 449.00 332.00 L 413.96 332.00 L 414.58 334.75 C416.88,345.02 429.24,349.25 435.44,341.89 C437.88,338.98 438.23,338.88 443.50,339.54 C446.52,339.92 449.00,340.43 449.00,340.66 C449.00,340.90 448.37,342.31 447.59,343.80 C445.58,347.65 441.10,351.64 436.78,353.45 ZM 570.04 372.00 C564.55,373.53 557.00,372.76 557.01,370.68 C557.01,370.03 557.47,367.84 558.03,365.82 C559.00,362.34 559.24,362.16 562.42,362.68 C566.21,363.30 569.50,360.86 570.55,356.65 C571.07,354.60 565.64,338.47 553.25,305.25 C552.91,304.33 554.49,304.00 559.20,304.00 L 565.61 304.00 L 571.37 322.10 C574.53,332.06 577.33,340.01 577.58,339.76 C577.83,339.51 580.46,331.55 583.42,322.08 C586.38,312.61 589.02,304.65 589.28,304.38 C589.55,304.12 592.46,304.03 595.75,304.20 L 601.73 304.50 L 590.98 334.34 C579.34,366.64 577.51,369.93 570.04,372.00 ZM 365.30 329.75 L 356.59 354.00 L 350.35 354.00 C346.92,354.00 343.89,353.64 343.62,353.19 C343.05,352.28 327.57,309.73 326.52,306.20 C325.85,303.95 325.97,303.91 332.15,304.20 L 338.46 304.50 L 343.94 321.75 C346.95,331.24 349.68,339.00 350.00,339.00 C350.32,339.00 353.13,331.24 356.23,321.75 L 361.87 304.50 L 367.94 304.20 C371.27,304.04 374.01,304.26 374.01,304.70 C374.02,305.14 370.10,316.41 365.30,329.75 ZM 546.00 287.00 L 546.00 354.00 L 534.00 354.00 L 534.00 287.00 ZM 394.00 304.00 L 394.00 354.00 L 382.00 354.00 L 382.00 304.00 ZM 232.00 296.76 L 232.00 319.00 L 240.60 319.00 C249.05,319.00 249.26,318.94 252.60,315.60 C257.15,311.05 257.35,305.55 253.14,300.83 C250.39,297.75 249.92,297.61 241.14,297.19 ZM 287.63 323.21 C287.90,323.64 293.10,324.00 299.18,324.00 L 310.25 324.00 L 309.63 320.75 C307.79,311.21 293.11,310.09 288.72,319.16 C287.85,320.95 287.36,322.77 287.63,323.21 ZM 415.00 321.90 C415.00,323.91 415.48,324.00 426.50,324.00 C432.83,324.00 438.00,323.76 438.00,323.47 C438.00,323.18 437.37,321.43 436.61,319.60 C434.72,315.08 431.43,313.00 426.18,313.00 C422.53,313.00 421.23,313.57 418.40,316.40 C416.53,318.27 415.00,320.74 415.00,321.90 ZM 393.00 295.00 C391.89,296.11 389.67,297.00 388.00,297.00 C381.97,297.00 378.85,290.15 383.00,286.00 C385.88,283.12 390.39,283.41 392.93,286.63 C395.53,289.95 395.56,292.44 393.00,295.00 Z" fill="rgb(11,16,20)"/>
<path d="M 118.68 344.74 C115.28,349.27 111.96,352.98 111.31,352.99 C110.65,352.99 107.50,349.78 104.31,345.84 C101.11,341.90 95.35,334.81 91.50,330.08 C87.65,325.35 83.87,320.68 83.10,319.70 C81.86,318.13 82.01,317.60 84.47,315.04 C87.94,311.41 92.23,309.59 95.41,310.39 C96.80,310.74 100.56,314.26 104.07,318.50 C107.48,322.63 110.62,326.00 111.04,326.00 C111.47,326.00 115.31,321.39 119.57,315.75 C143.34,284.36 151.68,273.93 155.33,271.00 C158.06,268.81 159.61,268.46 167.85,268.15 C175.54,267.86 177.09,268.04 176.41,269.15 C175.95,269.89 172.17,274.77 168.00,280.00 C163.82,285.23 154.82,296.92 147.98,306.00 C141.14,315.08 133.14,325.65 130.20,329.50 C127.27,333.35 122.08,340.21 118.68,344.74 ZM 78.97 349.32 C76.51,352.39 74.05,354.91 73.50,354.91 C72.95,354.91 65.46,348.74 56.85,341.20 C39.77,326.25 37.16,322.70 39.13,317.06 C39.84,315.03 45.72,309.18 56.78,299.51 C65.91,291.53 73.63,285.01 73.94,285.03 C74.49,285.06 80.75,292.98 82.26,295.56 C82.77,296.43 78.91,300.43 70.26,308.00 C63.24,314.14 57.36,319.53 57.20,319.98 C56.95,320.67 64.40,327.47 80.38,341.12 L 83.44 343.73 ZM 170.75 345.75 C164.84,350.84 159.65,355.00 159.21,355.00 C158.00,355.00 151.00,345.49 151.03,343.89 C151.04,343.13 156.67,337.58 163.53,331.56 C170.39,325.54 176.00,320.34 176.00,320.01 C176.00,319.67 171.95,315.91 166.99,311.65 C161.52,306.96 159.06,304.98 159.02,302.96 C158.98,301.38 160.42,299.78 163.04,296.83 C163.26,296.58 163.49,296.33 163.73,296.06 L 167.62 291.67 L 178.56 301.42 C193.53,314.76 194.00,315.34 194.00,320.22 C194.00,323.95 193.42,324.90 187.75,330.42 C184.31,333.76 176.66,340.66 170.75,345.75 Z" fill="rgb(236,109,23)"/>
<path d="M 0.00 320.00 L 0.00 0.00 L 320.00 0.00 L 640.00 0.00 L 640.00 320.00 L 640.00 640.00 L 320.00 640.00 L 0.00 640.00 L 0.00 320.00 ZM 570.04 372.00 C577.51,369.93 579.34,366.64 590.98,334.34 L 601.73 304.50 L 595.75 304.20 C592.46,304.03 589.55,304.12 589.28,304.38 C589.02,304.65 586.38,312.61 583.42,322.08 C580.46,331.55 577.83,339.51 577.58,339.76 C577.33,340.01 574.53,332.06 571.37,322.10 L 565.61 304.00 L 559.20 304.00 C554.49,304.00 552.91,304.33 553.25,305.25 C565.64,338.47 571.07,354.60 570.55,356.65 C569.50,360.86 566.21,363.30 562.42,362.68 C559.24,362.16 559.00,362.34 558.03,365.82 C557.47,367.84 557.01,370.03 557.01,370.68 C557.00,372.76 564.55,373.53 570.04,372.00 ZM 78.97 349.32 L 83.44 343.73 L 80.38 341.12 C64.40,327.47 56.95,320.67 57.20,319.98 C57.36,319.53 63.24,314.14 70.26,308.00 C78.91,300.43 82.77,296.43 82.26,295.56 C80.75,292.98 74.49,285.06 73.94,285.03 C73.63,285.01 65.91,291.53 56.78,299.51 C45.72,309.18 39.84,315.03 39.13,317.06 C37.16,322.70 39.77,326.25 56.85,341.20 C65.46,348.74 72.95,354.91 73.50,354.91 C74.05,354.91 76.51,352.39 78.97,349.32 ZM 170.75 345.75 C176.66,340.66 184.31,333.76 187.75,330.42 C193.42,324.90 194.00,323.95 194.00,320.22 C194.00,315.34 193.53,314.76 178.56,301.42 L 167.62 291.67 L 163.73 296.06 C157.04,303.59 156.92,303.00 166.99,311.65 C171.95,315.91 176.00,319.67 176.00,320.01 C176.00,320.34 170.39,325.54 163.53,331.56 C156.67,337.58 151.04,343.13 151.03,343.89 C151.00,345.49 158.00,355.00 159.21,355.00 C159.65,355.00 164.84,350.84 170.75,345.75 ZM 308.22 353.96 C312.65,352.73 317.51,348.85 319.54,344.93 C321.71,340.72 321.45,340.32 316.01,339.60 C311.37,338.98 310.84,339.14 308.26,341.92 C301.69,349.03 289.86,344.95 287.44,334.75 L 286.78 332.00 L 304.53 332.00 L 322.27 332.00 L 321.77 325.70 C321.03,316.55 316.54,308.93 309.80,305.41 C305.84,303.34 293.47,303.60 288.49,305.86 C283.56,308.10 278.64,313.55 276.93,318.66 C275.03,324.32 275.19,334.71 277.26,340.06 C279.41,345.63 285.40,351.67 290.62,353.53 C295.27,355.19 303.10,355.38 308.22,353.96 ZM 436.78 353.45 C441.10,351.64 445.58,347.65 447.59,343.80 C448.37,342.31 449.00,340.90 449.00,340.66 C449.00,340.43 446.52,339.92 443.50,339.54 C438.23,338.88 437.88,338.98 435.44,341.89 C429.24,349.25 416.88,345.02 414.58,334.75 L 413.96 332.00 L 431.48 332.00 L 449.00 332.00 L 449.00 327.13 C449.00,312.74 440.70,303.88 427.10,303.75 C411.99,303.59 404.09,311.49 403.21,327.65 C402.82,334.78 403.07,336.47 405.26,341.26 C407.91,347.04 412.76,351.68 418.24,353.67 C422.93,355.37 432.45,355.25 436.78,353.45 ZM 232.00 341.50 L 232.00 329.00 L 237.25 329.02 C240.14,329.02 242.99,329.36 243.60,329.77 C244.20,330.17 247.50,335.79 250.93,342.25 L 257.17 354.00 L 264.09 354.00 L 271.02 354.00 L 268.15 348.75 C266.57,345.86 263.38,339.97 261.06,335.66 L 256.85 327.82 L 261.05 324.22 C263.37,322.24 265.88,319.15 266.63,317.34 C268.51,312.84 268.38,302.65 266.39,298.70 C261.54,289.10 255.88,287.00 234.82,287.00 L 220.00 287.00 L 220.00 320.50 L 220.00 354.00 L 226.00 354.00 L 232.00 354.00 L 232.00 341.50 ZM 365.30 329.75 C370.10,316.41 374.02,305.14 374.01,304.70 C374.01,304.26 371.27,304.04 367.94,304.20 L 361.87 304.50 L 356.23 321.75 C353.13,331.24 350.32,339.00 350.00,339.00 C349.68,339.00 346.95,331.24 343.94,321.75 L 338.46 304.50 L 332.15 304.20 C325.97,303.91 325.85,303.95 326.52,306.20 C327.57,309.73 343.05,352.28 343.62,353.19 C343.89,353.64 346.92,354.00 350.35,354.00 L 356.59 354.00 L 365.30 329.75 ZM 394.00 329.00 L 394.00 304.00 L 388.00 304.00 L 382.00 304.00 L 382.00 329.00 L 382.00 354.00 L 388.00 354.00 L 394.00 354.00 L 394.00 329.00 ZM 485.00 337.25 C487.48,328.32 489.73,321.01 490.00,321.01 C490.27,321.02 492.17,327.25 494.22,334.86 C499.74,355.42 498.87,354.00 505.93,354.00 L 511.92 354.00 L 513.90 347.25 C521.45,321.52 526.00,305.59 526.00,304.86 C526.00,304.39 523.32,304.00 520.04,304.00 L 514.08 304.00 L 513.09 307.75 C512.54,309.81 510.67,317.24 508.93,324.25 C507.18,331.26 505.44,337.00 505.05,337.00 C504.66,337.00 503.80,334.64 503.14,331.75 C502.47,328.86 500.54,321.44 498.84,315.25 L 495.75 304.00 L 489.95 304.00 L 484.14 304.00 L 482.65 309.25 C481.83,312.14 479.94,319.23 478.46,325.00 C476.97,330.77 475.42,335.86 475.02,336.31 C474.61,336.76 472.84,331.36 471.09,324.31 C469.34,317.26 467.46,309.81 466.91,307.75 L 465.92 304.00 L 459.96 304.00 C456.68,304.00 454.00,304.35 454.00,304.77 C454.00,305.49 461.49,331.82 466.09,347.30 L 468.11 354.09 L 474.31 353.80 L 480.50 353.50 L 485.00 337.25 ZM 546.00 320.50 L 546.00 287.00 L 540.00 287.00 L 534.00 287.00 L 534.00 320.50 L 534.00 354.00 L 540.00 354.00 L 546.00 354.00 L 546.00 320.50 ZM 118.68 344.74 C122.08,340.21 127.27,333.35 130.20,329.50 C133.14,325.65 141.14,315.08 147.98,306.00 C154.82,296.92 163.82,285.23 168.00,280.00 C172.17,274.77 175.95,269.89 176.41,269.15 C177.09,268.04 175.54,267.86 167.85,268.15 C159.61,268.46 158.06,268.81 155.33,271.00 C151.68,273.93 143.34,284.36 119.57,315.75 C115.31,321.39 111.47,326.00 111.04,326.00 C110.62,326.00 107.48,322.63 104.07,318.50 C100.56,314.26 96.80,310.74 95.41,310.39 C92.23,309.59 87.94,311.41 84.47,315.04 C82.01,317.60 81.86,318.13 83.10,319.70 C83.87,320.68 87.65,325.35 91.50,330.08 C95.35,334.81 101.11,341.90 104.31,345.84 C107.50,349.78 110.65,352.99 111.31,352.99 C111.96,352.98 115.28,349.27 118.68,344.74 ZM 393.00 295.00 C395.56,292.44 395.53,289.95 392.93,286.63 C390.39,283.41 385.88,283.12 383.00,286.00 C378.85,290.15 381.97,297.00 388.00,297.00 C389.67,297.00 391.89,296.11 393.00,295.00 ZM 287.63 323.21 C287.36,322.77 287.85,320.95 288.72,319.16 C293.11,310.09 307.79,311.21 309.63,320.75 L 310.25 324.00 L 299.18 324.00 C293.10,324.00 287.90,323.64 287.63,323.21 ZM 415.00 321.90 C415.00,320.74 416.53,318.27 418.40,316.40 C421.23,313.57 422.53,313.00 426.18,313.00 C431.43,313.00 434.72,315.08 436.61,319.60 C437.37,321.43 438.00,323.18 438.00,323.47 C438.00,323.76 432.83,324.00 426.50,324.00 C415.48,324.00 415.00,323.91 415.00,321.90 ZM 232.00 307.88 L 232.00 296.76 L 241.14 297.19 C249.92,297.61 250.39,297.75 253.14,300.83 C257.35,305.55 257.15,311.05 252.60,315.60 C249.26,318.94 249.05,319.00 240.60,319.00 L 232.00 319.00 L 232.00 307.88 Z" fill="rgb(254,254,254)"/>
</g>
</svg>