<svg width="176" height="30" viewBox="0 0 176 30" fill="none" xmlns="http://www.w3.org/2000/svg">
<path d="M17.3424 13.3936C15.3884 9.00436 12.1224 5.13185 9.28459 1.30091C6.54006 1.00394 4.49815 3.08274 3.03258 5.16154C3.93826 7.07404 6.03507 9.14096 7.2207 11.1425C5.65633 11.2851 3.85593 11.3089 2.36292 12.2176C0.617407 13.1738 -0.00285308 15.8407 1.47918 17.3552C2.67579 19.137 8.06601 25.7714 10.1793 27.3215C17.8639 34.0213 12.6878 20.6694 11.1069 17.9076C13.8679 18.0738 18.1988 17.6819 17.3424 13.3936Z" fill="#43C3AC"/>
<path d="M34.2695 4.78043V0.819336L38.5617 2.31235V4.78043" fill="white"/>
<path d="M34.2861 22.5936V6.41406H38.5783V22.5936H34.2861Z" fill="white"/>
<path d="M45.4782 25.1829C46.1482 25.5338 46.8977 25.708 47.6549 25.6887C48.2526 25.7268 48.8517 25.6379 49.4121 25.4277C49.9725 25.2176 50.4813 24.891 50.9047 24.4699C51.6732 23.6574 52.0554 22.3208 52.0513 20.4601V19.9847H51.9594C51.4621 20.765 50.7667 21.4012 49.9431 21.8292C49.1196 22.2572 48.197 22.4617 47.2686 22.4223C45.8933 22.4492 44.5381 22.0924 43.3566 21.3924C42.2111 20.7032 41.283 19.7089 40.677 18.5222C40.0475 17.2152 39.7207 15.7846 39.7207 14.3356C39.7207 12.8866 40.0475 11.4561 40.677 10.1491C41.2711 8.96584 42.1865 7.97154 43.3198 7.27878C44.477 6.58508 45.807 6.22825 47.1582 6.24889C48.1178 6.24134 49.064 6.47175 49.9113 6.91924C50.7454 7.35204 51.4386 8.0114 51.9103 8.82055H52.0023V7.57129L56.2944 6.66938V19.9786C56.364 21.8065 55.954 23.621 55.1049 25.2439C54.4046 26.5224 53.3198 27.5514 52.0023 28.1872C50.6795 28.7979 49.2359 29.1061 47.7775 29.0892C46.3054 29.1324 44.8449 28.8187 43.5222 28.1751C42.4078 27.6225 41.4742 26.7665 40.8303 25.707L43.8348 23.6716C44.2658 24.2879 44.8266 24.8035 45.4782 25.1829ZM50.8617 17.4801C51.6311 16.6106 52.035 15.4805 51.9899 14.3234C52.0384 13.1768 51.6334 12.057 50.8617 11.2033C50.4895 10.8197 50.0432 10.5148 49.5496 10.3063C49.056 10.098 48.5253 9.99063 47.9891 9.99063C47.4528 9.99063 46.9221 10.098 46.4286 10.3063C45.9349 10.5148 45.4887 10.8197 45.1164 11.2033C44.3447 12.057 43.9398 13.1768 43.9882 14.3234C43.9431 15.4805 44.347 16.6106 45.1164 17.4801C45.4836 17.8723 45.9282 18.1851 46.4224 18.399C46.9167 18.6128 47.45 18.7232 47.9891 18.7232C48.5281 18.7232 49.0614 18.6128 49.5557 18.399C50.0499 18.1851 50.4945 17.8723 50.8617 17.4801Z" fill="white"/>
<path d="M61.9213 8.79076C62.3964 7.99327 63.0838 7.34166 63.9079 6.90772C64.8368 6.46721 65.8595 6.25806 66.8879 6.29832C67.7406 6.24945 68.5937 6.38793 69.3863 6.70391C70.1791 7.01989 70.8919 7.50562 71.4744 8.12651C72.6206 9.50686 73.2067 11.2629 73.1177 13.0504V22.8069H68.8255V14.385C68.8777 13.2636 68.5823 12.1532 67.9794 11.204C67.6859 10.795 67.2914 10.468 66.8339 10.2546C66.3764 10.0411 65.8713 9.94838 65.3673 9.98516C64.854 9.95222 64.3406 10.0462 63.8729 10.2589C63.4053 10.4717 62.998 10.7963 62.6877 11.204C62.0244 12.2467 61.709 13.4707 61.7864 14.7019V22.8069H57.4941V1.28906L61.7864 2.50786V8.79076H61.9213Z" fill="white"/>
<path d="M80.5405 2.57434V6.63904H83.8761V10.009H80.5405V22.8064H76.2483V10.009H73.6914L74.9178 6.65732H76.2728V1.09961L80.5405 2.57434Z" fill="white"/>
<path d="M92.4524 23.209C90.8454 23.2372 89.2577 22.862 87.8351 22.1182C86.5138 21.4181 85.4171 20.3621 84.6712 19.0712C83.9362 17.7328 83.5484 16.2335 83.543 14.7087C83.5377 13.184 83.9149 11.6819 84.6406 10.3385C85.3726 9.06514 86.4526 8.0236 87.7555 7.33417C89.1825 6.58459 90.7773 6.20915 92.3913 6.24336C93.5552 6.22614 94.7078 6.46983 95.7634 6.95634V10.8748C94.7646 10.2515 93.6007 9.9395 92.4219 9.979C91.8023 9.94902 91.1836 10.0492 90.6051 10.2729C90.0275 10.4965 89.5032 10.8386 89.0681 11.277C88.2265 12.1926 87.7861 13.4024 87.8412 14.6408C87.8132 15.2807 87.9163 15.9195 88.1444 16.5186C88.3716 17.1178 88.7194 17.6649 89.1659 18.1266C89.6247 18.5744 90.1708 18.9235 90.7712 19.152C91.3715 19.3806 92.0129 19.4838 92.6543 19.4551C93.758 19.4557 94.8468 19.2122 95.8429 18.7421V22.5387C94.7734 22.9977 93.6173 23.2262 92.4524 23.209Z" fill="white"/>
<path d="M101.386 8.79076C101.861 7.99327 102.549 7.34166 103.373 6.90772C104.302 6.46721 105.325 6.25806 106.353 6.29832C107.206 6.24945 108.059 6.38793 108.851 6.70391C109.644 7.01989 110.357 7.50562 110.94 8.12651C112.084 9.50746 112.667 11.2637 112.577 13.0504V22.8069H108.284V14.385C108.337 13.2636 108.041 12.1532 107.438 11.204C107.144 10.7945 106.748 10.4673 106.289 10.2539C105.831 10.0404 105.325 9.94785 104.82 9.98516C104.307 9.95213 103.795 10.0462 103.329 10.2589C102.862 10.4717 102.456 10.7964 102.146 11.204C101.483 12.2467 101.168 13.4707 101.245 14.7019V22.8069H96.9531V1.28906L101.245 2.50786V8.79076H101.386Z" fill="white"/>
<path d="M124.042 22.5195C123.135 22.9985 122.119 23.2357 121.093 23.2081C119.73 23.2196 118.393 22.8523 117.229 22.1478C116.034 21.4195 115.061 20.3807 114.415 19.1434C113.693 17.7787 113.33 16.2546 113.36 14.7131C113.33 13.177 113.682 11.6573 114.384 10.2888C115.016 9.06409 115.978 8.03808 117.162 7.32561C118.347 6.61315 119.708 6.24233 121.093 6.25465C122.106 6.23893 123.11 6.45801 124.024 6.89453C124.888 7.3162 125.621 7.96271 126.145 8.76537H126.237V6.1084L130.529 7.60142V22.8364H126.286V20.3988H126.194C125.663 21.2708 124.924 21.9992 124.042 22.5195ZM124.146 18.8631C124.801 18.4487 125.331 17.8652 125.679 17.1751C126.06 16.4188 126.251 15.5827 126.237 14.7375C126.28 13.4918 125.841 12.2772 125.011 11.3431C124.616 10.9238 124.139 10.5893 123.609 10.3607C123.079 10.1322 122.507 10.0143 121.93 10.0143C121.351 10.0143 120.78 10.1322 120.25 10.3607C119.72 10.5893 119.243 10.9238 118.849 11.3431C118.018 12.2772 117.579 13.4918 117.622 14.7375C117.609 15.5827 117.8 16.4188 118.18 17.1751C118.528 17.8652 119.058 18.4487 119.713 18.8631C120.381 19.2617 121.144 19.4723 121.924 19.4723C122.702 19.4723 123.466 19.2617 124.134 18.8631H124.146Z" fill="white"/>
<path d="M135.92 9.1255C136.362 8.27033 137.061 7.57358 137.92 7.13276C138.917 6.69209 140.005 6.49363 141.095 6.55383L143.548 6.58432L142.818 7.57154C142.596 7.86115 142.39 8.1644 142.206 8.47954C141.954 8.91221 141.751 9.28394 141.592 9.60083L141.077 10.649C139.274 10.649 137.956 11.0126 137.122 11.7398C136.288 12.467 135.879 13.7488 135.896 15.5852V22.8065H131.604V7.63856L135.816 6.01758V9.1255H135.92Z" fill="white"/>
<path d="M147.247 25.1829C147.919 25.5339 148.671 25.708 149.43 25.6888C150.028 25.7266 150.627 25.6373 151.187 25.4272C151.747 25.217 152.256 24.8907 152.68 24.47C153.44 23.6575 153.82 22.3209 153.82 20.4601V19.9848H153.704C153.208 20.7664 152.513 21.4036 151.689 21.8318C150.865 22.2599 149.942 22.4636 149.013 22.4224C147.638 22.4492 146.282 22.0924 145.101 21.3925C143.955 20.7033 143.027 19.7089 142.422 18.5223C141.792 17.2153 141.465 15.7847 141.465 14.3357C141.465 12.8867 141.792 11.4561 142.422 10.1491C143.016 8.96436 143.934 7.9697 145.07 7.27884C146.225 6.58442 147.553 6.22748 148.903 6.24896C149.862 6.24141 150.809 6.47182 151.656 6.9193C152.49 7.35362 153.185 8.01249 153.661 8.82062H153.747V7.57136L158.039 6.66945V19.9787C158.116 21.8209 157.706 23.651 156.85 25.2866C156.15 26.5634 155.067 27.5921 153.753 28.2299C152.428 28.8398 150.982 29.1479 149.522 29.1319C148.05 29.1744 146.59 28.8607 145.267 28.2178C144.154 27.6635 143.22 26.8079 142.575 25.7497L145.586 23.7143C146.025 24.319 146.592 24.8203 147.247 25.1829ZM152.631 17.4802C153.4 16.6107 153.804 15.4805 153.759 14.3235C153.807 13.1769 153.402 12.0571 152.631 11.2033C152.259 10.8198 151.812 10.5148 151.318 10.3064C150.825 10.0981 150.294 9.99071 149.758 9.99071C149.222 9.99071 148.692 10.0981 148.198 10.3064C147.704 10.5148 147.258 10.8198 146.885 11.2033C146.114 12.0571 145.709 13.1769 145.757 14.3235C145.712 15.4805 146.116 16.6107 146.885 17.4802C147.252 17.8724 147.697 18.1851 148.192 18.3991C148.685 18.6129 149.219 18.7233 149.758 18.7233C150.297 18.7233 150.831 18.6129 151.324 18.3991C151.819 18.1851 152.264 17.8724 152.631 17.4802Z" fill="white"/>
<path d="M160.049 10.3504C160.69 9.10551 161.669 8.06449 162.876 7.34613C164.137 6.60462 165.58 6.22688 167.045 6.2553C168.511 6.2117 169.958 6.5951 171.209 7.35831C172.344 8.07313 173.248 9.09687 173.815 10.3078C174.403 11.565 174.701 12.9373 174.685 14.3237V14.8844C174.695 15.1439 174.674 15.4036 174.624 15.6583H163.372C163.46 16.743 163.917 17.7658 164.666 18.559C165.314 19.1563 166.144 19.5205 167.025 19.5935C167.905 19.6664 168.785 19.4438 169.522 18.9613C170.151 18.5127 170.613 17.8698 170.835 17.1331H174.514C174.479 17.5042 174.419 17.8726 174.336 18.2361C174.266 18.5022 174.175 18.763 174.066 19.0161C173.505 20.2733 172.578 21.3345 171.405 22.0631C170.137 22.8462 168.667 23.2463 167.174 23.2149C165.672 23.2444 164.189 22.8719 162.882 22.1362C161.66 21.4305 160.671 20.3866 160.037 19.1319C159.35 17.7414 159.01 16.2074 159.043 14.6589C159.017 13.1625 159.363 11.6826 160.049 10.3504ZM170.473 13.1598C170.454 12.2478 170.088 11.3769 169.449 10.7222C168.811 10.1008 167.956 9.74767 167.063 9.73631C166.17 9.72495 165.308 10.0562 164.654 10.6613C163.995 11.3529 163.567 12.2296 163.427 13.172L170.473 13.1598Z" fill="white"/>
<path d="M26.2662 9.1255C26.7077 8.26868 27.4091 7.57155 28.2713 7.13276C29.2665 6.69146 30.3534 6.49296 31.4414 6.55383L33.894 6.58432L33.1582 7.57154C32.935 7.86115 32.7301 8.1644 32.545 8.47954C32.2936 8.91221 32.0914 9.28394 31.9319 9.60083L31.4168 10.649C29.6141 10.649 28.2958 11.0126 27.4619 11.7398C26.628 12.467 26.2192 13.7488 26.2356 15.5852V22.8065H21.9434V7.63856L26.1498 6.01758V9.1255H26.2662Z" fill="white"/>
</svg>
