<svg width="156" height="156" viewBox="0 0 156 156" fill="none" xmlns="http://www.w3.org/2000/svg">
<rect width="156" height="156" rx="78" fill="white"/>
<path d="M79.2063 137C66.1445 137 54.0658 132.918 44.1641 125.93L51.8186 119.427C59.6838 124.477 69.0939 127.383 79.2063 127.383C99.712 127.383 117.338 115.345 125.204 98.1182L134.192 101.854C124.853 122.609 103.715 137 79.2063 137Z" fill="#2187FB"/>
<path fill-rule="evenodd" clip-rule="evenodd" d="M47.5805 26.5566C29.954 36.9343 18.1562 55.8907 18.1562 77.5454C18.1562 93.3194 24.4063 107.641 34.5889 118.295L41.9625 111.999C33.2546 103.074 27.8473 90.898 27.8473 77.5454C27.8473 59.0732 38.1001 42.9533 53.2687 34.3745L47.5805 26.5566Z" fill="#2187FB"/>
<path d="M138.595 77.614C138.595 82.2493 138.033 86.7463 137.05 91.0357L127.921 87.2306C128.553 84.1173 128.904 80.8656 128.904 77.5448C128.904 50.0786 106.291 27.8013 78.4122 27.8013C73.4262 27.8013 68.6509 28.4932 64.1565 29.8077L58.1172 21.7131C64.4374 19.4992 71.2493 18.2539 78.342 18.2539C111.629 18.2539 138.595 44.8206 138.595 77.614Z" fill="#2187FB"/>
<path fill-rule="evenodd" clip-rule="evenodd" d="M51.513 54.0876C48.5635 53.3266 45.4034 55.0562 44.5607 57.9619C43.718 60.8677 45.4034 63.9118 48.3528 64.6728L66.4709 69.4465V113.724C66.4709 116.768 68.999 119.259 72.0889 119.328C75.1788 119.398 77.7069 116.976 77.7069 113.932V65.2954C77.7069 62.9432 76.1619 60.8677 74.0552 60.0374C73.8445 59.9683 73.5636 59.8299 73.3529 59.7607L51.513 54.0876Z" fill="#0D346D"/>
<path fill-rule="evenodd" clip-rule="evenodd" d="M91.2594 70.0014V114.625C91.2594 117.669 88.7313 120.091 85.6414 120.022C82.5515 119.952 80.0234 117.393 80.0234 114.418V66.2654C80.0234 65.9887 80.0234 65.7811 80.0234 65.5044C80.0937 63.1521 81.7088 61.215 83.8156 60.5923C83.956 60.5231 84.0965 60.5231 84.2369 60.4539L105.445 54.85C108.394 54.089 111.414 55.8186 112.186 58.7935C112.889 61.7684 111.063 64.8125 108.113 65.5736L91.2594 70.0014Z" fill="#0D346D"/>
<path fill-rule="evenodd" clip-rule="evenodd" d="M56.8489 42.0515C53.8994 41.2904 50.7393 43.02 49.8966 45.9258C49.0539 48.8315 50.7393 51.8756 53.6888 52.6367L76.863 58.794C77.8461 59.0708 78.8293 59.0708 79.7422 58.794C79.9529 58.794 80.2338 58.7249 80.4445 58.6557L103.689 52.775C106.709 52.014 108.394 49.0391 107.622 46.1333C106.779 43.2276 103.689 41.4288 100.669 42.1898L78.408 47.7938L56.8489 42.0515Z" fill="#0D346D"/>
</svg>
