<svg xmlns:xlink="http://www.w3.org/1999/xlink"  width="150" height="150" viewBox="0 0 150 150" fill="none" xmlns="http://www.w3.org/2000/svg">
<path d="M63.0314 67.1807C65.9679 67.1807 68.3484 69.5612 68.3484 72.4976V95.306C68.3484 98.2425 65.9679 100.623 63.0314 100.623C60.0954 100.623 57.7148 98.2425 57.7148 95.306V72.4976C57.7148 69.5616 60.0954 67.181 63.0314 67.181V67.1807Z" fill="#A4C639"/>
<path d="M50.8922 39.7593C50.8747 39.9609 50.8594 40.1647 50.8594 40.3708V74.9276C50.8594 78.644 53.8011 81.638 57.4529 81.638H92.5947C96.2469 81.638 99.1885 78.6436 99.1885 74.9276V40.3708C99.1885 40.1647 99.1811 39.9601 99.1639 39.7593H50.8922Z" fill="#A4C639"/>
<path d="M87.0182 67.1808C89.9547 67.1808 92.3352 69.5613 92.3352 72.4978V95.3061C92.3352 98.2426 89.9547 100.623 87.0182 100.623C84.0822 100.623 81.7016 98.2426 81.7016 95.3061V72.4978C81.7016 69.5617 84.0822 67.1812 87.0182 67.1812V67.1808ZM42.317 42.8342C45.2531 42.8342 47.6336 45.2147 47.6336 48.1512V70.9595C47.6336 73.896 45.2531 76.2765 42.317 76.2765C39.3805 76.2765 37 73.896 37 70.9599V48.1515C36.9996 45.2151 39.3801 42.8342 42.317 42.8342ZM107.732 42.8342C110.669 42.8342 113.049 45.2147 113.049 48.1512V70.9595C113.049 73.896 110.669 76.2765 107.732 76.2765C104.796 76.2765 102.415 73.896 102.415 70.9599V48.1515C102.415 45.2151 104.796 42.8342 107.732 42.8342V42.8342ZM51.0479 37.4888C51.1958 26.8743 60.4602 18.1714 72.3524 17.0244H77.6959C89.5888 18.1717 98.8525 26.8751 99.0004 37.4888H51.0479Z" fill="#A4C639"/>
<path d="M52.897 16L58.5055 25.7147M97.1521 16L91.5431 25.7147" stroke="#A4C639" stroke-width="4" stroke-linecap="round" stroke-linejoin="round"/>
<path d="M67.8813 27.9764C67.8858 29.4601 66.6578 30.6664 65.1383 30.6705C63.6194 30.6743 62.3844 29.475 62.3799 27.9913V27.9764C62.3758 26.4923 63.6038 25.2863 65.1229 25.2822C66.6418 25.2781 67.8768 26.477 67.8813 27.9614V27.9764ZM88.4144 27.9764C88.4189 29.4601 87.1909 30.6664 85.6714 30.6705C84.1526 30.6743 82.9175 29.475 82.913 27.9913V27.9764C82.9089 26.4923 84.1369 25.2863 85.6561 25.2822C87.1749 25.2781 88.41 26.477 88.4144 27.9614V27.9764Z" fill="white"/>
<path d="M41.461 142L45.061 129.4H48.481L52.063 142H50.065L49.237 139.03H44.305L43.477 142H41.461ZM44.791 137.23H48.751L46.915 130.606H46.627L44.791 137.23ZM53.8241 142V133.126H55.6421V134.458H55.9301C56.0981 134.098 56.3981 133.762 56.8301 133.45C57.2621 133.138 57.9041 132.982 58.7561 132.982C59.4281 132.982 60.0221 133.132 60.5381 133.432C61.0661 133.732 61.4801 134.158 61.7801 134.71C62.0801 135.25 62.2301 135.904 62.2301 136.672V142H60.3761V136.816C60.3761 136.048 60.1841 135.484 59.8001 135.124C59.4161 134.752 58.8881 134.566 58.2161 134.566C57.4481 134.566 56.8301 134.818 56.3621 135.322C55.9061 135.826 55.6781 136.558 55.6781 137.518V142H53.8241ZM68.5703 142.252C67.8383 142.252 67.1603 142.072 66.5363 141.712C65.9123 141.352 65.4083 140.836 65.0243 140.164C64.6523 139.48 64.4663 138.658 64.4663 137.698V137.428C64.4663 136.48 64.6523 135.664 65.0243 134.98C65.3963 134.296 65.8943 133.774 66.5183 133.414C67.1423 133.054 67.8263 132.874 68.5703 132.874C69.1463 132.874 69.6263 132.946 70.0103 133.09C70.4063 133.234 70.7303 133.42 70.9823 133.648C71.2343 133.864 71.4263 134.092 71.5583 134.332H71.8463V129.4H73.7003V142H71.8823V140.74H71.5943C71.3663 141.124 71.0183 141.472 70.5503 141.784C70.0943 142.096 69.4343 142.252 68.5703 142.252ZM69.0923 140.632C69.8963 140.632 70.5563 140.374 71.0723 139.858C71.6003 139.342 71.8643 138.604 71.8643 137.644V137.482C71.8643 136.534 71.6063 135.802 71.0903 135.286C70.5743 134.77 69.9083 134.512 69.0923 134.512C68.3003 134.512 67.6403 134.77 67.1123 135.286C66.5963 135.802 66.3383 136.534 66.3383 137.482V137.644C66.3383 138.604 66.5963 139.342 67.1123 139.858C67.6403 140.374 68.3003 140.632 69.0923 140.632ZM76.4295 142V133.126H78.2475V134.17H78.5355C78.6795 133.798 78.9075 133.528 79.2195 133.36C79.5435 133.18 79.9395 133.09 80.4075 133.09H81.4695V134.764H80.3355C79.7355 134.764 79.2435 134.932 78.8595 135.268C78.4755 135.592 78.2835 136.096 78.2835 136.78V142H76.4295ZM87.2321 142.252C86.3441 142.252 85.5521 142.072 84.8561 141.712C84.1721 141.34 83.6321 140.812 83.2361 140.128C82.8401 139.444 82.6421 138.634 82.6421 137.698V137.428C82.6421 136.492 82.8401 135.688 83.2361 135.016C83.6321 134.332 84.1721 133.804 84.8561 133.432C85.5521 133.06 86.3441 132.874 87.2321 132.874C88.1201 132.874 88.9121 133.06 89.6081 133.432C90.3041 133.804 90.8501 134.332 91.2461 135.016C91.6421 135.688 91.8401 136.492 91.8401 137.428V137.698C91.8401 138.634 91.6421 139.444 91.2461 140.128C90.8501 140.812 90.3041 141.34 89.6081 141.712C88.9121 142.072 88.1201 142.252 87.2321 142.252ZM87.2321 140.596C88.0481 140.596 88.7081 140.338 89.2121 139.822C89.7281 139.294 89.9861 138.568 89.9861 137.644V137.482C89.9861 136.558 89.7341 135.838 89.2301 135.322C88.7261 134.794 88.0601 134.53 87.2321 134.53C86.4281 134.53 85.7681 134.794 85.2521 135.322C84.7481 135.838 84.4961 136.558 84.4961 137.482V137.644C84.4961 138.568 84.7481 139.294 85.2521 139.822C85.7681 140.338 86.4281 140.596 87.2321 140.596ZM94.1483 142V133.126H96.0023V142H94.1483ZM95.0843 131.92C94.7243 131.92 94.4183 131.806 94.1663 131.578C93.9263 131.338 93.8063 131.032 93.8063 130.66C93.8063 130.288 93.9263 129.988 94.1663 129.76C94.4183 129.52 94.7243 129.4 95.0843 129.4C95.4563 129.4 95.7623 129.52 96.0023 129.76C96.2423 129.988 96.3623 130.288 96.3623 130.66C96.3623 131.032 96.2423 131.338 96.0023 131.578C95.7623 131.806 95.4563 131.92 95.0843 131.92ZM102.426 142.252C101.694 142.252 101.016 142.072 100.392 141.712C99.7677 141.352 99.2637 140.836 98.8797 140.164C98.5077 139.48 98.3217 138.658 98.3217 137.698V137.428C98.3217 136.48 98.5077 135.664 98.8797 134.98C99.2517 134.296 99.7497 133.774 100.374 133.414C100.998 133.054 101.682 132.874 102.426 132.874C103.002 132.874 103.482 132.946 103.866 133.09C104.262 133.234 104.586 133.42 104.838 133.648C105.09 133.864 105.282 134.092 105.414 134.332H105.702V129.4H107.556V142H105.738V140.74H105.45C105.222 141.124 104.874 141.472 104.406 141.784C103.95 142.096 103.29 142.252 102.426 142.252ZM102.948 140.632C103.752 140.632 104.412 140.374 104.928 139.858C105.456 139.342 105.72 138.604 105.72 137.644V137.482C105.72 136.534 105.462 135.802 104.946 135.286C104.43 134.77 103.764 134.512 102.948 134.512C102.156 134.512 101.496 134.77 100.968 135.286C100.452 135.802 100.194 136.534 100.194 137.482V137.644C100.194 138.604 100.452 139.342 100.968 139.858C101.496 140.374 102.156 140.632 102.948 140.632Z" fill="#5B5751"/>
</svg>
