<svg xmlns:xlink="http://www.w3.org/1999/xlink"  xmlns="http://www.w3.org/2000/svg" width="150" height="150" viewBox="0 0 150 150" fill="none">
<path d="M53.9352 70.932L41 57.9968L83.0002 16H108.867L53.9352 70.932ZM108.867 54.7545H83.0002L73.3107 64.444L86.2459 77.3792" fill="#42A5F5" fill-opacity="0.8"/>
<path d="M73.3096 90.3116L82.9991 100.001H108.866L86.2447 77.3799" fill="#0D47A1"/>
<path d="M60.4067 77.386L73.3215 64.4678L86.2363 77.3826L73.3215 90.3007L60.4067 77.386Z" fill="#42A5F5"/>
<path d="M73.3208 90.301L86.2356 77.3862L88.0384 79.189L75.1236 92.1038L73.3208 90.301Z" fill="url(#paint0_linear_919_761)"/>
<path d="M73.3096 90.3111L92.5018 83.6806L86.2447 77.376" fill="url(#paint1_linear_919_761)"/>
<path d="M48.3726 142V129.4H56.1486V131.164H50.3166V134.8H55.6806V136.564H50.3166V142H48.3726ZM58.0946 142V129.4H59.9486V142H58.0946ZM66.102 142.162C65.43 142.162 64.83 142.012 64.302 141.712C63.774 141.412 63.36 140.986 63.06 140.434C62.76 139.882 62.61 139.222 62.61 138.454V133.126H64.464V138.328C64.464 139.096 64.656 139.666 65.04 140.038C65.424 140.398 65.958 140.578 66.642 140.578C67.398 140.578 68.004 140.326 68.46 139.822C68.928 139.306 69.162 138.568 69.162 137.608V133.126H71.016V142H69.198V140.668H68.91C68.742 141.028 68.442 141.37 68.01 141.694C67.578 142.006 66.942 142.162 66.102 142.162ZM77.0867 142C76.5467 142 76.1147 141.838 75.7907 141.514C75.4787 141.19 75.3227 140.758 75.3227 140.218V134.692H72.8747V133.126H75.3227V130.192H77.1767V133.126H79.2647V134.692H77.1767V139.894C77.1767 140.254 77.3447 140.434 77.6807 140.434H79.5347V142H77.0867ZM82.9187 142C82.3787 142 81.9467 141.838 81.6227 141.514C81.2987 141.19 81.1367 140.758 81.1367 140.218V134.692H79.2647V133.126H81.1367V130.192H82.9907V133.126H85.6547V134.692H82.9907V139.894C82.9907 140.254 83.1647 140.434 83.5127 140.434H85.3487V142H82.9187ZM91.9048 142.252C91.0048 142.252 90.2188 142.066 89.5468 141.694C88.8748 141.31 88.3468 140.776 87.9628 140.092C87.5908 139.396 87.4048 138.592 87.4048 137.68V137.464C87.4048 136.54 87.5908 135.736 87.9628 135.052C88.3348 134.356 88.8508 133.822 89.5108 133.45C90.1828 133.066 90.9568 132.874 91.8328 132.874C92.6848 132.874 93.4288 133.066 94.0648 133.45C94.7128 133.822 95.2168 134.344 95.5768 135.016C95.9368 135.688 96.1168 136.474 96.1168 137.374V138.076H89.2948C89.3188 138.856 89.5768 139.48 90.0688 139.948C90.5728 140.404 91.1968 140.632 91.9408 140.632C92.6368 140.632 93.1588 140.476 93.5068 140.164C93.8668 139.852 94.1428 139.492 94.3348 139.084L95.8648 139.876C95.6968 140.212 95.4508 140.566 95.1268 140.938C94.8148 141.31 94.4008 141.622 93.8848 141.874C93.3688 142.126 92.7088 142.252 91.9048 142.252ZM89.3128 136.654H94.2268C94.1788 135.982 93.9388 135.46 93.5068 135.088C93.0748 134.704 92.5108 134.512 91.8148 134.512C91.1188 134.512 90.5488 134.704 90.1048 135.088C89.6728 135.46 89.4088 135.982 89.3128 136.654ZM98.3485 142V133.126H100.166V134.17H100.454C100.598 133.798 100.826 133.528 101.138 133.36C101.462 133.18 101.858 133.09 102.326 133.09H103.388V134.764H102.254C101.654 134.764 101.162 134.932 100.778 135.268C100.394 135.592 100.202 136.096 100.202 136.78V142H98.3485Z" fill="#5B5751"/>
<defs>
<linearGradient id="paint0_linear_919_761" x1="79.7806" y1="83.8412" x2="81.5836" y2="85.6441" gradientUnits="userSpaceOnUse">
<stop offset="0.2" stop-opacity="0.15"/>
<stop offset="0.85" stop-color="#616161" stop-opacity="0.01"/>
</linearGradient>
<linearGradient id="paint1_linear_919_761" x1="73.3141" y1="83.8439" x2="92.5061" y2="83.8439" gradientUnits="userSpaceOnUse">
<stop offset="0.2" stop-opacity="0.55"/>
<stop offset="0.85" stop-color="#616161" stop-opacity="0.01"/>
</linearGradient>
</defs>
</svg>