<?xml version="1.0" encoding="UTF-8"?>
<svg xmlns:xlink="http://www.w3.org/1999/xlink"  xmlns="http://www.w3.org/2000/svg" width="150" height="150" viewBox="0 0 150 150" fill="none">
  <path d="M93.3519 52.6422C93.4477 62.938 102.401 66.3642 102.5 66.4079C102.424 66.6496 101.069 71.2906 97.7831 76.0844C94.9421 80.2289 91.9936 84.3582 87.3489 84.4438C82.7849 84.5277 81.3174 81.7424 76.0995 81.7424C70.8832 81.7424 69.2527 84.3582 64.9324 84.5277C60.449 84.6971 57.035 80.046 54.1704 75.9166C48.3171 67.47 43.844 52.0483 49.8503 41.6384C52.8341 36.4689 58.1664 33.1953 63.9541 33.1113C68.3566 33.0275 72.5121 36.0677 75.2035 36.0677C77.8931 36.0677 82.9429 32.4116 88.2516 32.9485C90.474 33.0409 96.7123 33.8446 100.718 39.6971C100.395 39.8969 93.2745 44.0346 93.3519 52.6422M84.7745 27.3603C87.1548 24.4844 88.7568 20.481 88.3197 16.4976C84.8888 16.6352 80.74 18.7796 78.279 21.6539C76.0736 24.1992 74.1421 28.2731 74.6632 32.1777C78.4874 32.473 82.3941 30.238 84.7745 27.3603" fill="black"></path>
  <path d="M60.46 123V109H62.62V123H60.46ZM70.7981 123.28C69.0781 123.28 67.7115 122.8 66.6981 121.84C65.6848 120.867 65.1781 119.467 65.1781 117.64V114.36C65.1781 112.533 65.6848 111.14 66.6981 110.18C67.7115 109.207 69.0781 108.72 70.7981 108.72C72.5181 108.72 73.8848 109.207 74.8981 110.18C75.9248 111.14 76.4381 112.533 76.4381 114.36V117.64C76.4381 119.467 75.9248 120.867 74.8981 121.84C73.8848 122.8 72.5181 123.28 70.7981 123.28ZM70.7981 121.34C71.9048 121.34 72.7581 121.02 73.3581 120.38C73.9581 119.727 74.2581 118.84 74.2581 117.72V114.28C74.2581 113.16 73.9581 112.28 73.3581 111.64C72.7581 110.987 71.9048 110.66 70.7981 110.66C69.7181 110.66 68.8715 110.987 68.2581 111.64C67.6448 112.28 67.3381 113.16 67.3381 114.28V117.72C67.3381 118.84 67.6448 119.727 68.2581 120.38C68.8715 121.02 69.7181 121.34 70.7981 121.34ZM83.7552 123.28C82.7018 123.28 81.7685 123.093 80.9552 122.72C80.1418 122.347 79.5018 121.8 79.0352 121.08C78.5818 120.347 78.3552 119.46 78.3552 118.42V117.92H80.4952V118.42C80.4952 119.407 80.7885 120.147 81.3752 120.64C81.9752 121.133 82.7685 121.38 83.7552 121.38C84.7552 121.38 85.5085 121.173 86.0152 120.76C86.5218 120.333 86.7752 119.787 86.7752 119.12C86.7752 118.68 86.6552 118.32 86.4152 118.04C86.1752 117.76 85.8352 117.54 85.3952 117.38C84.9552 117.207 84.4285 117.047 83.8152 116.9L83.0752 116.72C82.1818 116.507 81.4018 116.247 80.7352 115.94C80.0818 115.62 79.5752 115.2 79.2152 114.68C78.8552 114.16 78.6752 113.493 78.6752 112.68C78.6752 111.853 78.8752 111.147 79.2752 110.56C79.6885 109.973 80.2552 109.52 80.9752 109.2C81.6952 108.88 82.5418 108.72 83.5152 108.72C84.4885 108.72 85.3552 108.887 86.1152 109.22C86.8885 109.553 87.4952 110.047 87.9352 110.7C88.3752 111.353 88.5952 112.173 88.5952 113.16V113.88H86.4552V113.16C86.4552 112.56 86.3285 112.073 86.0752 111.7C85.8352 111.327 85.4952 111.053 85.0552 110.88C84.6152 110.707 84.1018 110.62 83.5152 110.62C82.6618 110.62 81.9952 110.8 81.5152 111.16C81.0485 111.507 80.8152 111.993 80.8152 112.62C80.8152 113.047 80.9152 113.4 81.1152 113.68C81.3285 113.947 81.6352 114.167 82.0352 114.34C82.4352 114.513 82.9352 114.667 83.5352 114.8L84.2752 114.98C85.1818 115.18 85.9818 115.44 86.6752 115.76C87.3685 116.067 87.9152 116.487 88.3152 117.02C88.7152 117.553 88.9152 118.24 88.9152 119.08C88.9152 119.92 88.7018 120.653 88.2752 121.28C87.8618 121.907 87.2685 122.4 86.4952 122.76C85.7218 123.107 84.8085 123.28 83.7552 123.28Z" fill="#5B5751"></path>
</svg>
