<svg xmlns:xlink="http://www.w3.org/1999/xlink"  width="150" height="150" viewBox="0 0 150 150" fill="none" xmlns="http://www.w3.org/2000/svg">
<path d="M74.5407 64.4295C78.3016 64.4295 81.3504 61.3807 81.3504 57.6198C81.3504 53.8589 78.3016 50.8101 74.5407 50.8101C70.7798 50.8101 67.731 53.8589 67.731 57.6198C67.731 61.3807 70.7798 64.4295 74.5407 64.4295Z" fill="#61DAFB"/>
<path d="M74.5401 71.5723C94.7206 71.5723 111.08 65.3259 111.08 57.6206C111.08 49.9153 94.7206 43.6689 74.5401 43.6689C54.3595 43.6689 38 49.9153 38 57.6206C38 65.3259 54.3595 71.5723 74.5401 71.5723Z" stroke="#61DAFB" stroke-width="3"/>
<path d="M62.4576 64.5963C72.5478 82.0731 86.1371 93.1177 92.8101 89.2651C99.4831 85.4124 96.7128 68.1215 86.6226 50.6446C76.5323 33.1678 62.943 22.1232 56.27 25.9758C49.5971 29.8285 52.3673 47.1194 62.4576 64.5963Z" stroke="#61DAFB" stroke-width="3"/>
<path d="M62.4576 50.6446C52.3673 68.1215 49.597 85.4124 56.27 89.2651C62.943 93.1177 76.5323 82.0731 86.6225 64.5963C96.7128 47.1194 99.4831 29.8285 92.8101 25.9758C86.1371 22.1232 72.5478 33.1678 62.4576 50.6446Z" stroke="#61DAFB" stroke-width="3"/>
<path d="M21.3999 142V129.4H26.6919C27.4719 129.4 28.1559 129.538 28.7439 129.814C29.3439 130.078 29.8059 130.462 30.1299 130.966C30.4659 131.47 30.6339 132.07 30.6339 132.766V132.964C30.6339 133.756 30.4419 134.392 30.0579 134.872C29.6859 135.34 29.2299 135.67 28.6899 135.862V136.15C29.1459 136.174 29.5119 136.33 29.7879 136.618C30.0639 136.894 30.2019 137.296 30.2019 137.824V142H28.2399V138.094C28.2399 137.77 28.1559 137.512 27.9879 137.32C27.8199 137.128 27.5499 137.032 27.1779 137.032H23.3439V142H21.3999ZM23.3439 135.268H26.4759C27.1719 135.268 27.7119 135.094 28.0959 134.746C28.4799 134.386 28.6719 133.9 28.6719 133.288V133.144C28.6719 132.532 28.4799 132.052 28.0959 131.704C27.7239 131.344 27.1839 131.164 26.4759 131.164H23.3439V135.268ZM36.895 142.252C35.995 142.252 35.209 142.066 34.537 141.694C33.865 141.31 33.337 140.776 32.953 140.092C32.581 139.396 32.395 138.592 32.395 137.68V137.464C32.395 136.54 32.581 135.736 32.953 135.052C33.325 134.356 33.841 133.822 34.501 133.45C35.173 133.066 35.947 132.874 36.823 132.874C37.675 132.874 38.419 133.066 39.055 133.45C39.703 133.822 40.207 134.344 40.567 135.016C40.927 135.688 41.107 136.474 41.107 137.374V138.076H34.285C34.309 138.856 34.567 139.48 35.059 139.948C35.563 140.404 36.187 140.632 36.931 140.632C37.627 140.632 38.149 140.476 38.497 140.164C38.857 139.852 39.133 139.492 39.325 139.084L40.855 139.876C40.687 140.212 40.441 140.566 40.117 140.938C39.805 141.31 39.391 141.622 38.875 141.874C38.359 142.126 37.699 142.252 36.895 142.252ZM34.303 136.654H39.217C39.169 135.982 38.929 135.46 38.497 135.088C38.065 134.704 37.501 134.512 36.805 134.512C36.109 134.512 35.539 134.704 35.095 135.088C34.663 135.46 34.399 135.982 34.303 136.654ZM46.0927 142.252C45.4567 142.252 44.8867 142.144 44.3827 141.928C43.8907 141.712 43.4947 141.394 43.1947 140.974C42.9067 140.554 42.7627 140.044 42.7627 139.444C42.7627 138.832 42.9067 138.328 43.1947 137.932C43.4947 137.524 43.8967 137.218 44.4007 137.014C44.9167 136.81 45.4987 136.708 46.1467 136.708H48.8467V136.132C48.8467 135.616 48.6907 135.202 48.3787 134.89C48.0667 134.578 47.5867 134.422 46.9387 134.422C46.3027 134.422 45.8167 134.572 45.4807 134.872C45.1447 135.172 44.9227 135.562 44.8147 136.042L43.0867 135.484C43.2307 135.004 43.4587 134.572 43.7707 134.188C44.0947 133.792 44.5207 133.474 45.0487 133.234C45.5767 132.994 46.2127 132.874 46.9567 132.874C48.1087 132.874 49.0147 133.168 49.6747 133.756C50.3347 134.344 50.6647 135.178 50.6647 136.258V139.912C50.6647 140.272 50.8327 140.452 51.1687 140.452H51.9247V142H50.5387C50.1187 142 49.7767 141.892 49.5127 141.676C49.2487 141.46 49.1167 141.166 49.1167 140.794V140.74H48.8467C48.7507 140.92 48.6067 141.13 48.4147 141.37C48.2227 141.61 47.9407 141.82 47.5687 142C47.1967 142.168 46.7047 142.252 46.0927 142.252ZM46.3627 140.722C47.1067 140.722 47.7067 140.512 48.1627 140.092C48.6187 139.66 48.8467 139.072 48.8467 138.328V138.148H46.2547C45.7627 138.148 45.3667 138.256 45.0667 138.472C44.7667 138.676 44.6167 138.982 44.6167 139.39C44.6167 139.798 44.7727 140.122 45.0847 140.362C45.3967 140.602 45.8227 140.722 46.3627 140.722ZM57.6384 142.252C56.7864 142.252 56.0124 142.072 55.3164 141.712C54.6324 141.352 54.0864 140.83 53.6784 140.146C53.2824 139.462 53.0844 138.64 53.0844 137.68V137.446C53.0844 136.486 53.2824 135.67 53.6784 134.998C54.0864 134.314 54.6324 133.792 55.3164 133.432C56.0124 133.06 56.7864 132.874 57.6384 132.874C58.4904 132.874 59.2164 133.03 59.8164 133.342C60.4164 133.654 60.8964 134.068 61.2564 134.584C61.6284 135.1 61.8684 135.67 61.9764 136.294L60.1764 136.672C60.1164 136.276 59.9904 135.916 59.7984 135.592C59.6064 135.268 59.3364 135.01 58.9884 134.818C58.6404 134.626 58.2024 134.53 57.6744 134.53C57.1584 134.53 56.6904 134.65 56.2704 134.89C55.8624 135.118 55.5384 135.454 55.2984 135.898C55.0584 136.33 54.9384 136.858 54.9384 137.482V137.644C54.9384 138.268 55.0584 138.802 55.2984 139.246C55.5384 139.69 55.8624 140.026 56.2704 140.254C56.6904 140.482 57.1584 140.596 57.6744 140.596C58.4544 140.596 59.0484 140.398 59.4564 140.002C59.8644 139.594 60.1224 139.078 60.2304 138.454L62.0304 138.868C61.8864 139.48 61.6284 140.044 61.2564 140.56C60.8964 141.076 60.4164 141.49 59.8164 141.802C59.2164 142.102 58.4904 142.252 57.6384 142.252ZM67.1648 142C66.6248 142 66.1928 141.838 65.8688 141.514C65.5568 141.19 65.4008 140.758 65.4008 140.218V134.692H62.9528V133.126H65.4008V130.192H67.2548V133.126H69.9008V134.692H67.2548V139.894C67.2548 140.254 67.4228 140.434 67.7588 140.434H69.6128V142H67.1648ZM76.6128 142V129.4H80.3568L83.7768 140.704H84.0648V129.4H85.9908V142H82.2468L78.8268 130.678H78.5388V142H76.6128ZM91.4267 142.252C90.7907 142.252 90.2207 142.144 89.7167 141.928C89.2247 141.712 88.8287 141.394 88.5287 140.974C88.2407 140.554 88.0967 140.044 88.0967 139.444C88.0967 138.832 88.2407 138.328 88.5287 137.932C88.8287 137.524 89.2307 137.218 89.7347 137.014C90.2507 136.81 90.8327 136.708 91.4807 136.708H94.1807V136.132C94.1807 135.616 94.0247 135.202 93.7127 134.89C93.4007 134.578 92.9207 134.422 92.2727 134.422C91.6367 134.422 91.1507 134.572 90.8147 134.872C90.4787 135.172 90.2567 135.562 90.1487 136.042L88.4207 135.484C88.5647 135.004 88.7927 134.572 89.1047 134.188C89.4287 133.792 89.8547 133.474 90.3827 133.234C90.9107 132.994 91.5467 132.874 92.2907 132.874C93.4427 132.874 94.3487 133.168 95.0087 133.756C95.6687 134.344 95.9987 135.178 95.9987 136.258V139.912C95.9987 140.272 96.1667 140.452 96.5027 140.452H97.2587V142H95.8727C95.4527 142 95.1107 141.892 94.8467 141.676C94.5827 141.46 94.4507 141.166 94.4507 140.794V140.74H94.1807C94.0847 140.92 93.9407 141.13 93.7487 141.37C93.5567 141.61 93.2747 141.82 92.9027 142C92.5307 142.168 92.0387 142.252 91.4267 142.252ZM91.6967 140.722C92.4407 140.722 93.0407 140.512 93.4967 140.092C93.9527 139.66 94.1807 139.072 94.1807 138.328V138.148H91.5887C91.0967 138.148 90.7007 138.256 90.4007 138.472C90.1007 138.676 89.9507 138.982 89.9507 139.39C89.9507 139.798 90.1067 140.122 90.4187 140.362C90.7307 140.602 91.1567 140.722 91.6967 140.722ZM101.776 142C101.236 142 100.804 141.838 100.48 141.514C100.168 141.19 100.012 140.758 100.012 140.218V134.692H97.5641V133.126H100.012V130.192H101.866V133.126H104.512V134.692H101.866V139.894C101.866 140.254 102.034 140.434 102.37 140.434H104.224V142H101.776ZM106.69 142V133.126H108.544V142H106.69ZM107.626 131.92C107.266 131.92 106.96 131.806 106.708 131.578C106.468 131.338 106.348 131.032 106.348 130.66C106.348 130.288 106.468 129.988 106.708 129.76C106.96 129.52 107.266 129.4 107.626 129.4C107.998 129.4 108.304 129.52 108.544 129.76C108.784 129.988 108.904 130.288 108.904 130.66C108.904 131.032 108.784 131.338 108.544 131.578C108.304 131.806 107.998 131.92 107.626 131.92ZM113.348 142L110.36 133.126H112.322L114.68 140.632H114.968L117.326 133.126H119.288L116.3 142H113.348ZM124.838 142.252C123.938 142.252 123.152 142.066 122.48 141.694C121.808 141.31 121.28 140.776 120.896 140.092C120.524 139.396 120.338 138.592 120.338 137.68V137.464C120.338 136.54 120.524 135.736 120.896 135.052C121.268 134.356 121.784 133.822 122.444 133.45C123.116 133.066 123.89 132.874 124.766 132.874C125.618 132.874 126.362 133.066 126.998 133.45C127.646 133.822 128.15 134.344 128.51 135.016C128.87 135.688 129.05 136.474 129.05 137.374V138.076H122.228C122.252 138.856 122.51 139.48 123.002 139.948C123.506 140.404 124.13 140.632 124.874 140.632C125.57 140.632 126.092 140.476 126.44 140.164C126.8 139.852 127.076 139.492 127.268 139.084L128.798 139.876C128.63 140.212 128.384 140.566 128.06 140.938C127.748 141.31 127.334 141.622 126.818 141.874C126.302 142.126 125.642 142.252 124.838 142.252ZM122.246 136.654H127.16C127.112 135.982 126.872 135.46 126.44 135.088C126.008 134.704 125.444 134.512 124.748 134.512C124.052 134.512 123.482 134.704 123.038 135.088C122.606 135.46 122.342 135.982 122.246 136.654Z" fill="#5B5751"/>
</svg>
