<svg width="1421" height="467" viewBox="0 0 1421 467" fill="none" xmlns="http://www.w3.org/2000/svg">
<mask id="mask0_329_456" style="mask-type:luminance" maskUnits="userSpaceOnUse" x="0" y="0" width="1327" height="294">
<path d="M1326.61 0H0V293.268H1326.61V0Z" fill="white"/>
</mask>
<g mask="url(#mask0_329_456)">
<path d="M315.354 77.4137C307.252 69.1056 297.462 62.5224 286.605 58.0806C275.749 53.6388 264.062 51.4352 252.283 51.6092H246.972C226.628 52.9294 207.365 60.9903 192.399 74.4461C181.948 84.3122 174.209 96.5692 169.895 110.094C165.58 123.618 164.826 137.979 167.702 151.86C172.372 171.007 183.438 188.112 199.172 200.501C201.031 202.178 203.022 203.598 205.014 205.146C210.435 208.357 214.987 212.781 218.292 218.048C218.996 219.926 219.486 221.873 219.752 223.854C219.859 227.475 221.268 230.945 223.736 233.66C227.156 235.422 231.042 236.141 234.889 235.724H244.45H251.221H264.5C269.289 235.821 274.08 235.605 278.84 235.079C281.133 231.798 282.756 228.118 283.62 224.241C284.153 222.007 284.955 219.842 286.01 217.79C289.39 212.581 293.927 208.172 299.288 204.888L302.873 202.05C313.691 194.356 322.549 184.353 328.764 172.812C334.979 161.27 338.387 148.496 338.724 135.474C338.78 113.944 330.428 93.1942 315.354 77.4137ZM306.193 178.051C301.83 182.771 297.03 187.09 291.852 190.954C280.827 197.926 272.655 208.423 268.748 220.629H234.757C232.297 213.199 228.424 206.283 223.337 200.243C221.707 198.688 219.877 197.344 217.893 196.244C216.824 195.63 215.803 194.94 214.84 194.179C203.899 187.29 194.932 177.819 188.779 166.651C182.626 155.482 179.486 142.981 179.653 130.313C180.619 112.88 188.297 96.4373 201.163 84.252C214.927 71.4837 233.255 64.4064 252.283 64.5114H254.01C272.189 64.8514 289.539 71.9645 302.475 84.3807C315.127 96.5016 322.778 112.701 323.986 129.926C324.607 138.766 323.348 147.635 320.287 155.982C317.226 164.329 312.428 171.973 306.193 178.438V178.051Z" fill="#F39619"/>
<path d="M114.058 77.4136C105.642 73.9977 96.6236 72.2012 87.5026 72.1237C75.0651 71.9887 62.8195 75.1082 52.05 81.1553C41.5596 86.9923 32.7827 95.3431 26.5561 105.411C20.3486 115.788 17.1376 127.6 17.2615 139.602C17.1393 151.523 20.3519 163.251 26.5561 173.536C32.7288 183.746 41.5103 192.234 52.05 198.178C62.7831 204.325 75.0453 207.494 87.5026 207.339C96.6139 207.299 105.632 205.547 114.058 202.178C120.577 199.557 126.696 196.084 132.249 191.857C133.691 190.769 135.499 190.246 137.317 190.39C139.135 190.533 140.833 191.332 142.075 192.631C142.772 193.348 143.307 194.197 143.647 195.127C143.987 196.055 144.124 197.044 144.049 198.027C143.974 199.01 143.688 199.967 143.211 200.837C142.734 201.708 142.077 202.472 141.278 203.082C134.464 208.323 126.962 212.662 118.972 215.984C99.6952 223.72 78.1862 224.4 58.4331 217.899C38.68 211.398 22.0232 198.157 11.5519 180.632C3.95496 168.221 -0.0372859 154.042 -1.70581e-05 139.602C-0.177584 125.046 3.87226 110.736 11.6847 98.3149C19.3635 85.9055 30.2608 75.6731 43.2865 68.64C56.5021 61.3063 71.4877 57.5212 86.7058 57.6731C97.9405 57.5944 109.082 59.6545 119.502 63.7372C127.339 66.8472 134.709 70.9701 141.412 75.9943C142.162 76.6035 142.782 77.3507 143.236 78.193C143.689 79.0354 143.967 79.9564 144.053 80.9033C144.139 81.8503 144.033 82.8042 143.739 83.7109C143.445 84.6176 142.97 85.4591 142.341 86.1874C141.065 87.5584 139.306 88.413 137.411 88.5808C135.516 88.7478 133.626 88.2158 132.117 87.09C126.602 83.0462 120.521 79.7881 114.058 77.4136Z" fill="#1D1D1B"/>
<path d="M483.189 69.6721C496.085 76.6305 506.82 86.8277 514.271 99.1979C521.722 111.568 525.617 125.656 525.546 139.989C525.651 154.327 521.755 168.425 514.274 180.784C506.792 193.142 496.004 203.3 483.056 210.178C469.634 217.318 454.539 220.963 439.239 220.758H380.151C379.187 220.775 378.229 220.604 377.335 220.253C376.441 219.902 375.629 219.381 374.947 218.718C374.265 218.056 373.728 217.266 373.367 216.398C373.007 215.529 372.83 214.598 372.848 213.661V66.1886C372.83 65.2459 373.007 64.3092 373.366 63.4333C373.725 62.5573 374.26 61.7598 374.94 61.0871C375.619 60.4144 376.431 59.8802 377.325 59.5155C378.22 59.1508 379.181 58.9631 380.151 58.9632H439.77C454.952 58.8293 469.91 62.5187 483.189 69.6721ZM474.691 197.663C485.158 191.883 493.842 183.487 499.843 173.346C505.844 163.204 508.942 151.687 508.816 139.989C508.981 128.104 505.765 116.406 499.521 106.186C493.362 96.0811 484.572 87.7312 474.036 81.9782C463.5 76.2249 451.589 73.2709 439.504 73.4138H396.616C395.645 73.3966 394.682 73.5675 393.78 73.9165C392.879 74.2654 392.058 74.7854 391.366 75.4461C390.673 76.1067 390.124 76.8948 389.749 77.7643C389.373 78.6337 389.18 79.5671 389.18 80.51V199.34C389.215 201.233 390.013 203.039 391.404 204.366C392.795 205.693 394.666 206.436 396.616 206.436H440.168C452.272 206.532 464.185 203.505 474.691 197.663Z" fill="#1D1D1B"/>
<path d="M568.965 58.9633H665.895C667.844 58.9971 669.702 59.7732 671.068 61.1246C672.434 62.4759 673.199 64.2944 673.199 66.1885C673.199 68.0826 672.434 69.9011 671.068 71.2524C669.702 72.6038 667.844 73.3799 665.895 73.4137H585.43C583.494 73.4137 581.636 74.1614 580.266 75.4922C578.897 76.823 578.127 78.628 578.127 80.51V124.119C578.127 126.002 578.897 127.806 580.266 129.137C581.636 130.468 583.494 131.216 585.43 131.216H655.804C657.741 131.216 659.598 131.963 660.968 133.294C662.338 134.625 663.107 136.43 663.107 138.312C663.125 139.249 662.949 140.18 662.588 141.048C662.227 141.917 661.69 142.707 661.009 143.369C660.327 144.031 659.514 144.554 658.62 144.904C657.726 145.254 656.768 145.426 655.804 145.408H585.43C584.471 145.408 583.521 145.592 582.636 145.948C581.75 146.305 580.945 146.828 580.266 147.487C579.588 148.146 579.05 148.928 578.683 149.789C578.316 150.65 578.127 151.572 578.127 152.504V199.211C578.127 201.092 578.897 202.898 580.266 204.229C581.636 205.559 583.494 206.307 585.43 206.307H668.95C670.887 206.307 672.744 207.055 674.114 208.386C675.483 209.716 676.252 211.521 676.252 213.403C676.252 215.285 675.483 217.09 674.114 218.421C672.744 219.752 670.887 220.499 668.95 220.499H568.965C567.028 220.499 565.171 219.752 563.801 218.421C562.432 217.09 561.662 215.285 561.662 213.403V66.1885C561.662 64.2944 562.428 62.4759 563.793 61.1246C565.159 59.7732 567.016 58.9971 568.965 58.9633Z" fill="#1D1D1B"/>
<path d="M711.439 58.9633H828.018C828.994 58.9632 829.955 59.1509 830.85 59.5156C831.745 59.8803 832.551 60.4145 833.235 61.0872C833.91 61.7599 834.447 62.5575 834.805 63.4334C835.163 64.3093 835.343 65.246 835.326 66.1887V68.7691C835.343 70.408 834.781 72.0036 833.731 73.2848L732.153 194.824C731.268 195.867 730.707 197.134 730.538 198.477C730.368 199.818 730.597 201.18 731.197 202.399C731.797 203.619 732.742 204.647 733.923 205.363C735.104 206.078 736.471 206.45 737.863 206.436H828.954C830.899 206.436 832.771 207.179 834.162 208.506C835.554 209.833 836.352 211.639 836.384 213.533C836.384 214.475 836.189 215.409 835.815 216.278C835.44 217.147 834.895 217.936 834.203 218.596C833.511 219.257 832.689 219.777 831.786 220.126C830.883 220.475 829.922 220.646 828.954 220.629H708.385C707.421 220.646 706.463 220.474 705.57 220.124C704.675 219.774 703.863 219.251 703.181 218.589C702.5 217.927 701.962 217.137 701.601 216.268C701.241 215.4 701.064 214.469 701.082 213.533V210.694C701.061 209.055 701.624 207.46 702.676 206.178L804.386 84.8971C805.264 83.8625 805.823 82.6071 805.997 81.2768C806.171 79.9464 805.954 78.5953 805.37 77.38C804.787 76.1647 803.86 75.135 802.699 74.4102C801.538 73.6854 800.189 73.2952 798.809 73.2848H711.439C710.452 73.3193 709.467 73.1622 708.543 72.8225C707.618 72.4829 706.773 71.9678 706.056 71.3071C705.339 70.6464 704.765 69.8535 704.367 68.9746C703.969 68.0958 703.755 67.1487 703.738 66.1887C703.738 65.2177 703.938 64.2566 704.329 63.3627C704.718 62.4689 705.29 61.6606 706.009 60.9862C706.728 60.3117 707.579 59.7851 708.512 59.4375C709.445 59.0899 710.441 58.9287 711.439 58.9633Z" fill="#1D1D1B"/>
<path d="M880.602 124.894H882.328C886.446 124.894 889.628 126.829 889.628 129.151V216.629C889.628 218.951 886.446 220.758 882.328 220.758H880.602C876.484 220.758 873.302 218.951 873.302 216.629V129.023C873.302 126.829 876.354 124.894 880.602 124.894Z" fill="#1D1D1B"/>
<path d="M949.382 58.9633H951.238C953.191 58.9971 955.047 59.7732 956.414 61.1246C957.782 62.4759 958.547 64.2944 958.547 66.1885V199.34C958.547 201.222 959.312 203.027 960.687 204.357C962.054 205.689 963.91 206.436 965.847 206.436H1024.54C1026.47 206.436 1028.33 207.183 1029.7 208.515C1031.07 209.846 1031.84 211.65 1031.84 213.532C1031.86 214.469 1031.68 215.4 1031.32 216.268C1030.96 217.137 1030.42 217.927 1029.74 218.589C1029.06 219.251 1028.25 219.774 1027.35 220.124C1026.46 220.474 1025.5 220.646 1024.54 220.628H949.382C948.422 220.628 947.47 220.445 946.591 220.088C945.704 219.732 944.898 219.209 944.223 218.55C943.539 217.891 943.002 217.109 942.635 216.248C942.269 215.387 942.082 214.464 942.082 213.532V66.1885C942.082 64.2944 942.847 62.4759 944.206 61.1246C945.574 59.7732 947.437 58.9971 949.382 58.9633Z" fill="#1D1D1B"/>
<path d="M1071.68 58.9633H1073.4C1075.35 58.9971 1077.21 59.7732 1078.57 61.1246C1079.94 62.4759 1080.7 64.2944 1080.7 66.1885V199.34C1080.7 201.222 1081.47 203.027 1082.84 204.357C1084.21 205.689 1086.07 206.436 1088.01 206.436H1146.83C1148.77 206.436 1150.62 207.183 1151.99 208.515C1153.36 209.846 1154.13 211.65 1154.13 213.532C1154.13 214.464 1153.94 215.387 1153.58 216.248C1153.21 217.109 1152.67 217.891 1151.99 218.55C1151.31 219.209 1150.51 219.732 1149.62 220.088C1148.73 220.445 1147.79 220.628 1146.83 220.628H1071.68C1070.71 220.646 1069.74 220.475 1068.83 220.126C1067.94 219.777 1067.12 219.257 1066.43 218.596C1065.73 217.936 1065.18 217.147 1064.81 216.278C1064.43 215.409 1064.24 214.475 1064.24 213.532V66.1885C1064.24 64.2722 1065.02 62.4345 1066.42 61.0794C1067.81 59.7245 1069.71 58.9633 1071.68 58.9633Z" fill="#1D1D1B"/>
<path d="M1310.82 216.629L1294.88 181.922C1294.29 180.688 1293.36 179.644 1292.18 178.912C1291.01 178.181 1289.64 177.792 1288.24 177.793H1205.25C1203.84 177.819 1202.47 178.233 1201.29 178.986C1200.12 179.741 1199.19 180.803 1198.62 182.051L1182.95 216.5C1182.35 217.767 1181.4 218.843 1180.21 219.598C1179 220.354 1177.6 220.756 1176.17 220.758H1174.71C1173.49 220.783 1172.29 220.505 1171.2 219.95C1170.13 219.395 1169.21 218.581 1168.54 217.586C1167.88 216.592 1167.48 215.448 1167.4 214.264C1167.32 213.081 1167.55 211.896 1168.07 210.822L1236.45 63.2209C1237.03 61.9733 1237.97 60.9106 1239.14 60.1569C1240.32 59.4032 1241.69 58.9892 1243.09 58.9633H1250.79C1252.22 58.9647 1253.62 59.3672 1254.83 60.1224C1256.03 60.8776 1256.98 61.9535 1257.56 63.2209L1325.95 210.822C1326.43 211.899 1326.64 213.074 1326.53 214.244C1326.43 215.414 1326.03 216.542 1325.38 217.526C1324.72 218.511 1323.82 219.321 1322.76 219.885C1321.71 220.449 1320.52 220.749 1319.31 220.758H1317.45C1316.05 220.775 1314.67 220.393 1313.49 219.66C1312.31 218.926 1311.39 217.872 1310.82 216.629ZM1217.86 163.342H1274.7C1275.92 163.355 1277.12 163.071 1278.2 162.516C1279.27 161.961 1280.19 161.153 1280.87 160.165C1281.53 159.177 1281.95 158.041 1282.05 156.861C1282.16 155.681 1281.96 154.494 1281.47 153.408L1253.19 90.316C1252.6 89.0802 1251.66 88.0334 1250.49 87.2994C1249.31 86.5662 1247.94 86.176 1246.54 86.176C1245.14 86.176 1243.78 86.5662 1242.6 87.2994C1241.42 88.0334 1240.49 89.0802 1239.91 90.316L1211.49 153.021C1210.92 154.112 1210.64 155.33 1210.7 156.555C1210.76 157.779 1211.13 158.969 1211.8 160.009C1212.48 161.048 1213.4 161.901 1214.52 162.485C1215.63 163.07 1216.87 163.365 1218.13 163.342H1217.86Z" fill="#1D1D1B"/>
<path d="M881.53 81.5424C887.544 81.5424 892.42 76.8055 892.42 70.9625C892.42 65.1193 887.544 60.3826 881.53 60.3826C875.515 60.3826 870.64 65.1193 870.64 70.9625C870.64 76.8055 875.515 81.5424 881.53 81.5424Z" fill="#F39619"/>
<path d="M227.454 114.056C231.12 114.056 234.093 111.167 234.093 107.605C234.093 104.042 231.12 101.154 227.454 101.154C223.787 101.154 220.814 104.042 220.814 107.605C220.814 111.167 223.787 114.056 227.454 114.056Z" fill="#F39619"/>
<path d="M275.388 114.056C279.054 114.056 282.026 111.167 282.026 107.605C282.026 104.042 279.054 101.154 275.388 101.154C271.721 101.154 268.748 104.042 268.748 107.605C268.748 111.167 271.721 114.056 275.388 114.056Z" fill="#F39619"/>
<path d="M283.089 264.238C282.708 262.707 281.741 261.374 280.384 260.51C279.027 259.648 277.383 259.319 275.786 259.594H273.396C272.423 259.658 271.448 259.658 270.475 259.594H257.197C246.176 259.594 234.757 258.561 227.852 258.045H225.728C225.122 258.004 224.514 258.087 223.942 258.287C223.371 258.487 222.848 258.8 222.408 259.206C221.928 259.73 221.562 260.343 221.333 261.009C221.106 261.674 221.019 262.378 221.08 263.077C220.938 263.452 220.938 263.863 221.08 264.238C224.511 266.715 228.786 267.824 233.03 267.334H240.333C248.698 267.334 262.242 268.625 271.803 269.012H273.927H277.114C278.386 269.143 279.663 268.824 280.712 268.112C281.761 267.401 282.511 266.346 282.823 265.141L283.089 264.238Z" fill="#F39619"/>
<path d="M228.117 253.4H232.366L263.703 254.949H267.819C270.384 255.077 272.955 255.077 275.52 254.949C277.246 254.949 282.823 254.949 283.088 250.949C283.142 250.428 283.075 249.904 282.891 249.412C282.707 248.92 282.411 248.476 282.026 248.111C280.167 246.304 276.184 245.401 268.748 245.401H262.507L249.23 244.626C242.059 244.626 235.155 243.724 229.976 243.724H225.727C225.148 243.652 224.56 243.697 224 243.856C223.439 244.015 222.918 244.284 222.47 244.648C222.021 245.01 221.655 245.46 221.393 245.967C221.131 246.474 220.979 247.028 220.947 247.594C220.947 253.4 225.727 253.4 228.117 253.4Z" fill="#F39619"/>
<path d="M235.686 161.408L237.412 162.827C239.138 164.633 240.466 165.923 241.794 167.084C243.122 168.246 245.113 170.181 247.371 172.632C248.226 173.506 249.257 174.203 250.398 174.679C251.539 175.154 252.768 175.4 254.01 175.4C255.252 175.4 256.48 175.154 257.622 174.679C258.763 174.203 259.793 173.506 260.649 172.632L263.039 170.568L264.5 169.278C268.749 165.407 271.935 162.568 276.317 158.182C278.84 155.602 281.23 153.15 281.363 150.827C281.374 149.067 280.711 147.366 279.503 146.053C278.439 144.99 277.035 144.308 275.52 144.119C270.342 144.119 264.632 150.053 260.118 154.956L257.329 157.923C256.245 158.9 255.267 159.98 254.408 161.149L253.612 162.053C252.815 162.053 251.753 160.117 251.089 159.472C250.702 158.913 250.257 158.394 249.761 157.923C249.097 157.923 248.3 156.504 247.371 155.602C241.395 149.279 236.217 144.119 232.632 144.119C231.235 144.137 229.88 144.584 228.759 145.394C227.639 146.206 226.811 147.339 226.392 148.634C226.189 150.158 226.373 151.708 226.929 153.148C227.484 154.587 228.394 155.872 229.578 156.891C231.455 158.59 233.501 160.102 235.686 161.408Z" fill="#F39619"/>
<path d="M273.794 273.141H229.711C229.491 273.123 229.269 273.149 229.06 273.219C228.851 273.289 228.66 273.4 228.497 273.546C228.335 273.692 228.206 273.869 228.118 274.065C228.029 274.262 227.984 274.475 227.985 274.689C227.902 276.88 228.283 279.064 229.106 281.107C229.928 283.149 231.174 285.005 232.765 286.559C235.343 288.843 238.357 290.611 241.638 291.762C244.919 292.913 248.401 293.425 251.885 293.268C255.463 293.425 259.037 292.878 262.391 291.659C265.746 290.439 268.811 288.573 271.404 286.172C272.887 284.628 274.01 282.791 274.698 280.788C275.385 278.784 275.62 276.66 275.388 274.56C275.328 274.182 275.138 273.836 274.848 273.578C274.558 273.32 274.186 273.166 273.794 273.141Z" fill="#F39619"/>
<path d="M252.283 39.7389C251.742 39.74 251.221 39.5403 250.827 39.1806C250.432 38.821 250.193 38.3285 250.159 37.8036V2.06436C250.159 1.51686 250.383 0.991776 250.781 0.604638C251.18 0.217494 251.72 0 252.283 0C252.847 0 253.387 0.217494 253.786 0.604638C254.184 0.991776 254.408 1.51686 254.408 2.06436V37.8036C254.374 38.3285 254.136 38.821 253.741 39.1806C253.345 39.5403 252.825 39.74 252.283 39.7389Z" fill="#F39619"/>
<path d="M308.981 53.1575H307.786C307.312 52.8655 306.976 52.4031 306.852 51.8712C306.727 51.3394 306.824 50.7813 307.122 50.3189L326.11 19.7406C326.409 19.2615 326.892 18.9176 327.453 18.7845C328.013 18.6515 328.604 18.7401 329.098 19.031C329.591 19.3219 329.944 19.7911 330.081 20.3355C330.218 20.8799 330.127 21.4549 329.828 21.934L310.707 51.6092C310.608 52.0036 310.391 52.3608 310.085 52.6362C309.777 52.9116 309.394 53.0929 308.981 53.1575Z" fill="#F39619"/>
<path d="M191.072 53.1573C190.635 53.117 190.222 52.9467 189.889 52.6695C189.557 52.3923 189.321 52.0219 189.213 51.609L170.225 21.6757C169.976 21.2157 169.914 20.681 170.052 20.1785C170.19 19.6761 170.519 19.243 170.973 18.9659C171.425 18.6887 171.97 18.588 172.495 18.6838C173.022 18.7795 173.492 19.0648 173.811 19.4824L192.798 50.0608C192.999 50.2419 193.16 50.4615 193.269 50.7057C193.378 50.9499 193.435 51.2135 193.435 51.4799C193.435 51.7465 193.378 52.01 193.269 52.2543C193.16 52.4985 192.999 52.718 192.798 52.8992L191.072 53.1573Z" fill="#F39619"/>
</g>
<path d="M1084.99 325.854L1092.61 277.888H1097.88L1090.26 325.854H1084.99ZM1115.74 326.44C1112.14 326.44 1109.15 325.723 1106.75 324.289C1104.41 322.813 1102.77 320.727 1101.8 318.033C1100.85 315.296 1100.66 312.103 1101.22 308.453C1101.79 305.107 1102.83 302.262 1104.34 299.916C1105.91 297.526 1107.88 295.702 1110.27 294.441C1112.7 293.181 1115.46 292.551 1118.54 292.551C1121.53 292.551 1124.01 293.203 1125.96 294.506C1127.96 295.81 1129.35 297.635 1130.13 299.981C1130.96 302.284 1131.13 304.977 1130.65 308.062L1130.39 309.952H1105.06L1105.58 306.628H1127.46L1126.29 307.541C1126.81 303.978 1126.4 301.241 1125.05 299.329C1123.71 297.417 1121.45 296.462 1118.28 296.462C1115.98 296.462 1114 296.983 1112.35 298.026C1110.71 299.025 1109.38 300.415 1108.38 302.197C1107.39 303.934 1106.71 305.911 1106.36 308.127L1106.17 309.691C1105.61 313.689 1106.17 316.773 1107.86 318.946C1109.6 321.074 1112.4 322.139 1116.26 322.139C1118.17 322.139 1120.04 321.856 1121.86 321.292C1123.68 320.683 1125.37 319.706 1126.94 318.359L1128.76 322.074C1127.03 323.464 1125.03 324.55 1122.77 325.332C1120.52 326.071 1118.17 326.44 1115.74 326.44ZM1147.97 326.44C1144.45 326.44 1141.98 325.506 1140.55 323.638C1139.15 321.77 1138.74 318.989 1139.31 315.296L1142.11 297.244H1135.73L1136.38 293.138H1142.82L1144.26 284.21L1149.73 282.711L1148.1 293.138H1157.47L1156.76 297.244H1147.38L1144.71 314.644C1144.27 317.208 1144.4 319.076 1145.1 320.249C1145.84 321.379 1147.1 321.943 1148.88 321.943C1149.7 321.943 1150.44 321.878 1151.09 321.748C1151.74 321.574 1152.35 321.379 1152.92 321.161L1152.26 325.593C1151.56 325.854 1150.87 326.049 1150.18 326.179C1149.48 326.353 1148.75 326.44 1147.97 326.44ZM1165.4 293.985L1163.25 291.704C1164.55 290.531 1165.42 289.488 1165.86 288.576C1166.33 287.62 1166.65 286.599 1166.83 285.513L1168.27 286.556H1163.51L1164.55 279.908H1171.26L1170.41 285.122C1170.24 286.295 1169.96 287.381 1169.57 288.38C1169.22 289.38 1168.72 290.336 1168.07 291.248C1167.42 292.16 1166.52 293.073 1165.4 293.985ZM1182.61 326.44C1180.13 326.44 1177.8 326.114 1175.64 325.463C1173.47 324.768 1171.75 323.855 1170.5 322.725L1172.38 319.011C1173.82 320.053 1175.42 320.879 1177.2 321.487C1179.02 322.052 1180.93 322.334 1182.93 322.334C1185.45 322.334 1187.44 321.878 1188.92 320.966C1190.39 320.053 1191.27 318.815 1191.53 317.251C1191.74 315.904 1191.46 314.797 1190.68 313.927C1189.94 313.015 1188.66 312.406 1186.84 312.103L1182.15 311.386C1178.94 310.864 1176.7 309.734 1175.44 307.997C1174.18 306.259 1173.75 304.13 1174.14 301.61C1174.44 299.698 1175.2 298.069 1176.42 296.722C1177.67 295.376 1179.26 294.354 1181.17 293.659C1183.08 292.92 1185.19 292.551 1187.49 292.551C1189.87 292.551 1192.02 292.877 1193.94 293.529C1195.89 294.137 1197.43 294.963 1198.56 296.005L1196.54 299.655C1195.41 298.699 1194.04 297.961 1192.44 297.439C1190.88 296.875 1189.22 296.592 1187.49 296.592C1185.02 296.592 1183.06 297.091 1181.63 298.091C1180.2 299.09 1179.35 300.35 1179.09 301.871C1178.87 303.261 1179.09 304.434 1179.74 305.39C1180.39 306.302 1181.56 306.889 1183.26 307.15L1188.08 307.997C1191.37 308.561 1193.67 309.648 1194.98 311.255C1196.32 312.819 1196.8 314.84 1196.41 317.316C1196.15 319.184 1195.38 320.813 1194.13 322.204C1192.91 323.551 1191.33 324.593 1189.38 325.332C1187.42 326.071 1185.16 326.44 1182.61 326.44ZM1234.81 326.44C1231.55 326.44 1228.8 325.745 1226.54 324.355C1224.28 322.921 1222.68 320.879 1221.72 318.229C1220.81 315.535 1220.64 312.341 1221.2 308.649C1222.07 303.392 1224.09 299.394 1227.26 296.657C1230.43 293.92 1234.31 292.551 1238.91 292.551C1240.99 292.551 1242.95 292.877 1244.77 293.529C1246.64 294.181 1248.16 295.136 1249.33 296.396L1247.24 300.046C1246.12 298.96 1244.82 298.156 1243.34 297.635C1241.9 297.113 1240.5 296.853 1239.11 296.853C1235.85 296.853 1233.1 297.895 1230.84 299.981C1228.62 302.066 1227.19 305.129 1226.54 309.17C1225.89 313.298 1226.37 316.491 1227.97 318.75C1229.62 320.966 1232.12 322.074 1235.46 322.074C1236.98 322.074 1238.57 321.791 1240.21 321.226C1241.86 320.662 1243.39 319.728 1244.77 318.424L1246.66 322.204C1245.27 323.507 1243.47 324.55 1241.25 325.332C1239.09 326.071 1236.94 326.44 1234.81 326.44ZM1252.66 325.854L1256.63 301.024C1256.85 299.72 1257.02 298.395 1257.15 297.048C1257.28 295.702 1257.37 294.398 1257.41 293.138H1262.55L1262.03 301.089L1260.99 301.154C1261.73 299.199 1262.71 297.591 1263.92 296.331C1265.18 295.071 1266.61 294.137 1268.22 293.529C1269.83 292.877 1271.46 292.551 1273.1 292.551C1273.67 292.551 1274.19 292.573 1274.66 292.617C1275.18 292.66 1275.69 292.747 1276.16 292.877L1275.25 297.635C1274.73 297.417 1274.19 297.287 1273.62 297.244C1273.1 297.156 1272.5 297.113 1271.8 297.113C1269.85 297.113 1268.11 297.526 1266.59 298.352C1265.08 299.177 1263.84 300.307 1262.88 301.74C1261.93 303.174 1261.32 304.781 1261.06 306.563L1258 325.854H1252.66ZM1291.3 326.44C1287.69 326.44 1284.7 325.723 1282.31 324.289C1279.97 322.813 1278.32 320.727 1277.37 318.033C1276.4 315.296 1276.21 312.103 1276.78 308.453C1277.34 305.107 1278.38 302.262 1279.9 299.916C1281.47 297.526 1283.44 295.702 1285.83 294.441C1288.25 293.181 1291.01 292.551 1294.1 292.551C1297.09 292.551 1299.57 293.203 1301.52 294.506C1303.52 295.81 1304.91 297.635 1305.69 299.981C1306.51 302.284 1306.68 304.977 1306.21 308.062L1305.95 309.952H1280.62L1281.14 306.628H1303.02L1301.85 307.541C1302.37 303.978 1301.95 301.241 1300.61 299.329C1299.26 297.417 1297 296.462 1293.84 296.462C1291.53 296.462 1289.56 296.983 1287.91 298.026C1286.26 299.025 1284.93 300.415 1283.94 302.197C1282.94 303.934 1282.26 305.911 1281.92 308.127L1281.73 309.691C1281.16 313.689 1281.73 316.773 1283.42 318.946C1285.15 321.074 1287.95 322.139 1291.82 322.139C1293.72 322.139 1295.6 321.856 1297.42 321.292C1299.24 320.683 1300.94 319.706 1302.5 318.359L1304.32 322.074C1302.58 323.464 1300.58 324.55 1298.33 325.332C1296.07 326.071 1293.72 326.44 1291.3 326.44ZM1324.37 326.44C1321.37 326.44 1318.86 325.745 1316.81 324.355C1314.77 322.921 1313.34 320.879 1312.52 318.229C1311.69 315.579 1311.56 312.385 1312.13 308.649C1313 303.392 1314.95 299.394 1317.99 296.657C1321.02 293.92 1324.67 292.551 1328.92 292.551C1331.79 292.551 1334.2 293.29 1336.15 294.767C1338.1 296.244 1339.3 298.243 1339.73 300.763L1339.02 300.893L1340.9 293.138H1345.98C1345.68 294.398 1345.36 295.68 1345.01 296.983C1344.71 298.243 1344.46 299.481 1344.29 300.698L1340.32 325.854H1335.04L1336.28 318.033H1337.26C1336.13 320.64 1334.46 322.703 1332.24 324.224C1330.07 325.701 1327.45 326.44 1324.37 326.44ZM1325.8 322.139C1328.79 322.139 1331.37 321.074 1333.55 318.946C1335.72 316.817 1337.13 313.71 1337.78 309.626C1338.47 305.368 1338.04 302.175 1336.48 300.046C1334.91 297.873 1332.55 296.787 1329.38 296.787C1326.34 296.787 1323.74 297.852 1321.57 299.981C1319.44 302.109 1318.05 305.216 1317.4 309.3C1316.75 313.558 1317.18 316.773 1318.7 318.946C1320.22 321.074 1322.58 322.139 1325.8 322.139ZM1362.56 326.44C1359.05 326.44 1356.57 325.506 1355.14 323.638C1353.75 321.77 1353.34 318.989 1353.9 315.296L1356.7 297.244H1350.32L1350.97 293.138H1357.42L1358.85 284.21L1364.32 282.711L1362.69 293.138H1372.07L1371.35 297.244H1361.98L1359.31 314.644C1358.87 317.208 1359 319.076 1359.7 320.249C1360.44 321.379 1361.69 321.943 1363.47 321.943C1364.3 321.943 1365.04 321.878 1365.69 321.748C1366.34 321.574 1366.95 321.379 1367.51 321.161L1366.86 325.593C1366.17 325.854 1365.47 326.049 1364.78 326.179C1364.08 326.353 1363.34 326.44 1362.56 326.44ZM1388.2 326.44C1384.59 326.44 1381.6 325.723 1379.21 324.289C1376.87 322.813 1375.22 320.727 1374.26 318.033C1373.3 315.296 1373.11 312.103 1373.68 308.453C1374.24 305.107 1375.28 302.262 1376.8 299.916C1378.37 297.526 1380.34 295.702 1382.73 294.441C1385.15 293.181 1387.91 292.551 1391 292.551C1393.99 292.551 1396.47 293.203 1398.42 294.506C1400.41 295.81 1401.81 297.635 1402.59 299.981C1403.41 302.284 1403.58 304.977 1403.11 308.062L1402.85 309.952H1377.52L1378.04 306.628H1399.92L1398.75 307.541C1399.27 303.978 1398.85 301.241 1397.51 299.329C1396.16 297.417 1393.9 296.462 1390.74 296.462C1388.43 296.462 1386.46 296.983 1384.81 298.026C1383.16 299.025 1381.83 300.415 1380.84 302.197C1379.84 303.934 1379.16 305.911 1378.82 308.127L1378.63 309.691C1378.06 313.689 1378.63 316.773 1380.32 318.946C1382.05 321.074 1384.85 322.139 1388.72 322.139C1390.62 322.139 1392.5 321.856 1394.32 321.292C1396.14 320.683 1397.83 319.706 1399.4 318.359L1401.22 322.074C1399.48 323.464 1397.48 324.55 1395.23 325.332C1392.97 326.071 1390.62 326.44 1388.2 326.44Z" fill="#3E353F"/>
<path d="M27.216 446.84C22.456 446.84 18.06 446.252 14.028 445.076C10.052 443.844 6.636 442.164 3.78 440.036L7.14 431.552C9.044 432.896 11.032 434.044 13.104 434.996C15.176 435.892 17.388 436.592 19.74 437.096C22.092 437.544 24.584 437.768 27.216 437.768C31.64 437.768 34.832 437.04 36.792 435.584C38.752 434.128 39.732 432.224 39.732 429.872C39.732 427.8 39.06 426.232 37.716 425.168C36.372 424.048 33.964 423.124 30.492 422.396L21 420.464C15.568 419.344 11.508 417.468 8.82 414.836C6.132 412.204 4.788 408.676 4.788 404.252C4.788 400.556 5.768 397.336 7.728 394.592C9.688 391.848 12.432 389.72 15.96 388.208C19.488 386.696 23.604 385.94 28.308 385.94C32.508 385.94 36.4 386.556 39.984 387.788C43.568 388.964 46.564 390.672 48.972 392.912L45.612 400.976C43.204 398.96 40.572 397.476 37.716 396.524C34.86 395.516 31.668 395.012 28.14 395.012C24.164 395.012 21.056 395.796 18.816 397.364C16.632 398.876 15.54 400.976 15.54 403.664C15.54 405.736 16.212 407.388 17.556 408.62C18.956 409.852 21.308 410.804 24.612 411.476L34.02 413.324C39.62 414.444 43.764 416.292 46.452 418.868C49.14 421.388 50.484 424.804 50.484 429.116C50.484 432.644 49.532 435.752 47.628 438.44C45.724 441.072 43.036 443.144 39.564 444.656C36.092 446.112 31.976 446.84 27.216 446.84ZM79.2665 446.84C74.2265 446.84 70.4185 445.524 67.8425 442.892C65.2665 440.26 63.9785 436.312 63.9785 431.048V411.476H55.8305V403.58H63.9785V392.744L74.4785 390.056V403.58H85.8185V411.476H74.4785V430.376C74.4785 433.288 75.0385 435.332 76.1585 436.508C77.2785 437.684 78.8185 438.272 80.7785 438.272C81.8425 438.272 82.7385 438.188 83.4665 438.02C84.2505 437.852 85.0065 437.628 85.7345 437.348V445.664C84.7825 446.056 83.7185 446.336 82.5425 446.504C81.4225 446.728 80.3305 446.84 79.2665 446.84ZM94.5466 446V414.416C94.5466 412.624 94.4906 410.804 94.3786 408.956C94.3226 407.108 94.1826 405.316 93.9586 403.58H104.123L105.299 415.172H103.619C104.179 412.372 105.103 410.048 106.391 408.2C107.735 406.352 109.359 404.98 111.263 404.084C113.167 403.188 115.239 402.74 117.479 402.74C118.487 402.74 119.299 402.796 119.915 402.908C120.531 402.964 121.147 403.104 121.763 403.328L121.679 412.568C120.615 412.12 119.691 411.84 118.907 411.728C118.179 411.616 117.255 411.56 116.135 411.56C113.727 411.56 111.683 412.064 110.003 413.072C108.379 414.08 107.147 415.48 106.307 417.272C105.523 419.064 105.131 421.108 105.131 423.404V446H94.5466ZM145.257 446.84C141.561 446.84 138.313 445.972 135.513 444.236C132.713 442.444 130.529 439.896 128.961 436.592C127.393 433.288 126.609 429.34 126.609 424.748C126.609 420.156 127.393 416.236 128.961 412.988C130.529 409.684 132.713 407.164 135.513 405.428C138.313 403.636 141.561 402.74 145.257 402.74C148.841 402.74 151.977 403.636 154.665 405.428C157.409 407.164 159.229 409.516 160.125 412.484H159.201L160.125 403.58H170.205C170.037 405.316 169.869 407.08 169.701 408.872C169.589 410.664 169.533 412.428 169.533 414.164V446H159.117L159.033 437.264H160.041C159.145 440.176 157.325 442.5 154.581 444.236C151.837 445.972 148.729 446.84 145.257 446.84ZM148.197 438.776C151.501 438.776 154.161 437.628 156.177 435.332C158.193 432.98 159.201 429.452 159.201 424.748C159.201 420.044 158.193 416.544 156.177 414.248C154.161 411.952 151.501 410.804 148.197 410.804C144.893 410.804 142.233 411.952 140.217 414.248C138.201 416.544 137.193 420.044 137.193 424.748C137.193 429.452 138.173 432.98 140.133 435.332C142.149 437.628 144.837 438.776 148.197 438.776ZM200.791 446.84C195.751 446.84 191.943 445.524 189.367 442.892C186.791 440.26 185.503 436.312 185.503 431.048V411.476H177.355V403.58H185.503V392.744L196.003 390.056V403.58H207.343V411.476H196.003V430.376C196.003 433.288 196.563 435.332 197.683 436.508C198.803 437.684 200.343 438.272 202.303 438.272C203.367 438.272 204.263 438.188 204.991 438.02C205.775 437.852 206.531 437.628 207.259 437.348V445.664C206.307 446.056 205.243 446.336 204.067 446.504C202.947 446.728 201.855 446.84 200.791 446.84ZM236.241 446.84C229.129 446.84 223.557 444.88 219.525 440.96C215.493 437.04 213.477 431.664 213.477 424.832C213.477 420.408 214.345 416.544 216.081 413.24C217.817 409.936 220.225 407.36 223.305 405.512C226.441 403.664 230.081 402.74 234.225 402.74C238.313 402.74 241.729 403.608 244.473 405.344C247.217 407.08 249.289 409.516 250.689 412.652C252.145 415.788 252.873 419.456 252.873 423.656V426.428H221.961V420.884H245.397L243.969 422.06C243.969 418.14 243.129 415.144 241.449 413.072C239.825 411 237.445 409.964 234.309 409.964C230.837 409.964 228.149 411.196 226.245 413.66C224.397 416.124 223.473 419.568 223.473 423.992V425.084C223.473 429.676 224.593 433.12 226.833 435.416C229.129 437.656 232.349 438.776 236.493 438.776C238.901 438.776 241.141 438.468 243.213 437.852C245.341 437.18 247.357 436.116 249.261 434.66L252.369 441.716C250.353 443.34 247.945 444.6 245.145 445.496C242.345 446.392 239.377 446.84 236.241 446.84ZM283.1 464.816C279.18 464.816 275.624 464.396 272.432 463.556C269.296 462.716 266.496 461.428 264.032 459.692L266.3 452.132C267.924 453.196 269.604 454.064 271.34 454.736C273.076 455.408 274.868 455.912 276.716 456.248C278.564 456.584 280.44 456.752 282.344 456.752C286.264 456.752 289.176 455.772 291.08 453.812C293.04 451.908 294.02 449.164 294.02 445.58V435.416H294.86C293.964 438.328 292.144 440.652 289.4 442.388C286.712 444.124 283.604 444.992 280.076 444.992C276.268 444.992 272.936 444.152 270.08 442.472C267.28 440.736 265.096 438.272 263.528 435.08C261.96 431.888 261.176 428.136 261.176 423.824C261.176 419.512 261.96 415.788 263.528 412.652C265.096 409.46 267.28 407.024 270.08 405.344C272.936 403.608 276.268 402.74 280.076 402.74C283.66 402.74 286.768 403.608 289.4 405.344C292.088 407.024 293.88 409.32 294.776 412.232L294.02 411.728L294.86 403.58H305.024C304.8 405.316 304.632 407.08 304.52 408.872C304.408 410.664 304.352 412.428 304.352 414.164V444.32C304.352 450.984 302.532 456.052 298.892 459.524C295.308 463.052 290.044 464.816 283.1 464.816ZM282.932 436.928C286.292 436.928 288.952 435.808 290.912 433.568C292.928 431.272 293.936 428.024 293.936 423.824C293.936 419.624 292.928 416.404 290.912 414.164C288.952 411.924 286.292 410.804 282.932 410.804C279.516 410.804 276.8 411.924 274.784 414.164C272.768 416.404 271.76 419.624 271.76 423.824C271.76 428.024 272.768 431.272 274.784 433.568C276.8 435.808 279.516 436.928 282.932 436.928ZM316.538 465.068L314.102 456.752C316.734 456.192 318.946 455.548 320.738 454.82C322.53 454.092 324.014 453.14 325.19 451.964C326.366 450.788 327.346 449.276 328.13 447.428L330.23 442.472L329.978 446.588L311.498 403.58H322.67L335.942 436.676H333.506L346.862 403.58H357.446L338.126 448.352C336.838 451.376 335.438 453.868 333.926 455.828C332.414 457.844 330.79 459.44 329.054 460.616C327.318 461.848 325.414 462.8 323.342 463.472C321.27 464.144 319.002 464.676 316.538 465.068ZM390.322 461.456V386.444H400.822V461.456H390.322ZM454.3 446V395.684H434.728V386.78H484.708V395.684H465.136V446H454.3ZM507.138 446.84C500.026 446.84 494.454 444.88 490.422 440.96C486.39 437.04 484.374 431.664 484.374 424.832C484.374 420.408 485.242 416.544 486.978 413.24C488.714 409.936 491.122 407.36 494.202 405.512C497.338 403.664 500.978 402.74 505.122 402.74C509.21 402.74 512.626 403.608 515.37 405.344C518.114 407.08 520.186 409.516 521.586 412.652C523.042 415.788 523.77 419.456 523.77 423.656V426.428H492.858V420.884H516.294L514.866 422.06C514.866 418.14 514.026 415.144 512.346 413.072C510.722 411 508.342 409.964 505.206 409.964C501.734 409.964 499.046 411.196 497.142 413.66C495.294 416.124 494.37 419.568 494.37 423.992V425.084C494.37 429.676 495.49 433.12 497.73 435.416C500.026 437.656 503.246 438.776 507.39 438.776C509.798 438.776 512.038 438.468 514.11 437.852C516.238 437.18 518.254 436.116 520.158 434.66L523.266 441.716C521.25 443.34 518.842 444.6 516.042 445.496C513.242 446.392 510.274 446.84 507.138 446.84ZM553.829 446.84C549.461 446.84 545.625 445.944 542.321 444.152C539.073 442.36 536.553 439.812 534.761 436.508C532.969 433.148 532.073 429.172 532.073 424.58C532.073 419.988 532.969 416.068 534.761 412.82C536.609 409.572 539.157 407.08 542.405 405.344C545.653 403.608 549.461 402.74 553.829 402.74C556.629 402.74 559.345 403.188 561.977 404.084C564.665 404.924 566.849 406.156 568.529 407.78L565.337 415.088C563.825 413.688 562.117 412.652 560.213 411.98C558.365 411.252 556.545 410.888 554.753 410.888C551.001 410.888 548.061 412.064 545.933 414.416C543.861 416.768 542.825 420.184 542.825 424.664C542.825 429.144 543.861 432.588 545.933 434.996C548.061 437.404 551.001 438.608 554.753 438.608C556.489 438.608 558.281 438.272 560.129 437.6C562.033 436.928 563.769 435.892 565.337 434.492L568.529 441.716C566.793 443.34 564.581 444.6 561.893 445.496C559.261 446.392 556.573 446.84 553.829 446.84ZM578.349 446V384.176H588.849V412.064H587.673C588.961 409.04 590.949 406.744 593.637 405.176C596.325 403.552 599.405 402.74 602.877 402.74C607.917 402.74 611.669 404.168 614.133 407.024C616.597 409.824 617.829 414.108 617.829 419.876V446H607.329V420.38C607.329 417.076 606.685 414.696 605.397 413.24C604.165 411.728 602.177 410.972 599.433 410.972C596.241 410.972 593.665 411.98 591.705 413.996C589.801 415.956 588.849 418.588 588.849 421.892V446H578.349ZM630.642 446V414.164C630.642 412.428 630.586 410.664 630.474 408.872C630.362 407.08 630.194 405.316 629.97 403.58H640.134L640.974 411.98H639.966C641.31 409.012 643.298 406.744 645.93 405.176C648.562 403.552 651.614 402.74 655.086 402.74C660.07 402.74 663.822 404.14 666.342 406.94C668.862 409.74 670.122 414.108 670.122 420.044V446H659.622V420.548C659.622 417.132 658.95 414.696 657.606 413.24C656.318 411.728 654.358 410.972 651.726 410.972C648.478 410.972 645.902 411.98 643.998 413.996C642.094 416.012 641.142 418.7 641.142 422.06V446H630.642ZM702.088 446.84C697.72 446.84 693.94 445.944 690.748 444.152C687.556 442.36 685.064 439.812 683.272 436.508C681.536 433.204 680.668 429.284 680.668 424.748C680.668 420.212 681.536 416.32 683.272 413.072C685.064 409.768 687.556 407.22 690.748 405.428C693.94 403.636 697.72 402.74 702.088 402.74C706.456 402.74 710.236 403.636 713.428 405.428C716.676 407.22 719.168 409.768 720.904 413.072C722.696 416.32 723.592 420.212 723.592 424.748C723.592 429.284 722.696 433.204 720.904 436.508C719.168 439.812 716.676 442.36 713.428 444.152C710.236 445.944 706.456 446.84 702.088 446.84ZM702.088 438.776C705.392 438.776 708.024 437.628 709.984 435.332C711.944 432.98 712.924 429.452 712.924 424.748C712.924 420.044 711.944 416.544 709.984 414.248C708.024 411.952 705.392 410.804 702.088 410.804C698.784 410.804 696.152 411.952 694.192 414.248C692.232 416.544 691.252 420.044 691.252 424.748C691.252 429.452 692.232 432.98 694.192 435.332C696.152 437.628 698.784 438.776 702.088 438.776ZM734.327 446V384.176H744.827V446H734.327ZM777.061 446.84C772.693 446.84 768.913 445.944 765.721 444.152C762.529 442.36 760.037 439.812 758.245 436.508C756.509 433.204 755.641 429.284 755.641 424.748C755.641 420.212 756.509 416.32 758.245 413.072C760.037 409.768 762.529 407.22 765.721 405.428C768.913 403.636 772.693 402.74 777.061 402.74C781.429 402.74 785.209 403.636 788.401 405.428C791.649 407.22 794.141 409.768 795.877 413.072C797.669 416.32 798.565 420.212 798.565 424.748C798.565 429.284 797.669 433.204 795.877 436.508C794.141 439.812 791.649 442.36 788.401 444.152C785.209 445.944 781.429 446.84 777.061 446.84ZM777.061 438.776C780.365 438.776 782.997 437.628 784.957 435.332C786.917 432.98 787.897 429.452 787.897 424.748C787.897 420.044 786.917 416.544 784.957 414.248C782.997 411.952 780.365 410.804 777.061 410.804C773.757 410.804 771.125 411.952 769.165 414.248C767.205 416.544 766.225 420.044 766.225 424.748C766.225 429.452 767.205 432.98 769.165 435.332C771.125 437.628 773.757 438.776 777.061 438.776ZM828.956 464.816C825.036 464.816 821.48 464.396 818.288 463.556C815.152 462.716 812.352 461.428 809.888 459.692L812.156 452.132C813.78 453.196 815.46 454.064 817.196 454.736C818.932 455.408 820.724 455.912 822.572 456.248C824.42 456.584 826.296 456.752 828.2 456.752C832.12 456.752 835.032 455.772 836.936 453.812C838.896 451.908 839.876 449.164 839.876 445.58V435.416H840.716C839.82 438.328 838 440.652 835.256 442.388C832.568 444.124 829.46 444.992 825.932 444.992C822.124 444.992 818.792 444.152 815.936 442.472C813.136 440.736 810.952 438.272 809.384 435.08C807.816 431.888 807.032 428.136 807.032 423.824C807.032 419.512 807.816 415.788 809.384 412.652C810.952 409.46 813.136 407.024 815.936 405.344C818.792 403.608 822.124 402.74 825.932 402.74C829.516 402.74 832.624 403.608 835.256 405.344C837.944 407.024 839.736 409.32 840.632 412.232L839.876 411.728L840.716 403.58H850.88C850.656 405.316 850.488 407.08 850.376 408.872C850.264 410.664 850.208 412.428 850.208 414.164V444.32C850.208 450.984 848.388 456.052 844.748 459.524C841.164 463.052 835.9 464.816 828.956 464.816ZM828.788 436.928C832.148 436.928 834.808 435.808 836.768 433.568C838.784 431.272 839.792 428.024 839.792 423.824C839.792 419.624 838.784 416.404 836.768 414.164C834.808 411.924 832.148 410.804 828.788 410.804C825.372 410.804 822.656 411.924 820.64 414.164C818.624 416.404 817.616 419.624 817.616 423.824C817.616 428.024 818.624 431.272 820.64 433.568C822.656 435.808 825.372 436.928 828.788 436.928ZM862.394 465.068L859.958 456.752C862.59 456.192 864.802 455.548 866.594 454.82C868.386 454.092 869.87 453.14 871.046 451.964C872.222 450.788 873.202 449.276 873.986 447.428L876.086 442.472L875.834 446.588L857.354 403.58H868.526L881.798 436.676H879.362L892.718 403.58H903.302L883.982 448.352C882.694 451.376 881.294 453.868 879.782 455.828C878.27 457.844 876.646 459.44 874.91 460.616C873.174 461.848 871.27 462.8 869.198 463.472C867.126 464.144 864.858 464.676 862.394 465.068ZM936.178 461.456V386.444H946.678V461.456H936.178ZM1013.76 446.84C1007.6 446.84 1002.31 445.608 997.888 443.144C993.52 440.624 990.16 437.096 987.808 432.56C985.456 427.968 984.28 422.564 984.28 416.348C984.28 410.132 985.456 404.756 987.808 400.22C990.16 395.684 993.52 392.184 997.888 389.72C1002.31 387.2 1007.6 385.94 1013.76 385.94C1017.91 385.94 1021.63 386.528 1024.94 387.704C1028.3 388.88 1031.18 390.616 1033.59 392.912L1030.06 401.48C1027.43 399.352 1024.88 397.84 1022.42 396.944C1020.01 395.992 1017.24 395.516 1014.1 395.516C1008.11 395.516 1003.52 397.336 1000.32 400.976C997.188 404.56 995.62 409.684 995.62 416.348C995.62 423.012 997.188 428.164 1000.32 431.804C1003.52 435.444 1008.11 437.264 1014.1 437.264C1017.24 437.264 1020.01 436.816 1022.42 435.92C1024.88 434.968 1027.43 433.4 1030.06 431.216L1033.59 439.784C1031.18 442.024 1028.3 443.76 1024.94 444.992C1021.63 446.224 1017.91 446.84 1013.76 446.84ZM1060.75 446.84C1056.39 446.84 1052.61 445.944 1049.41 444.152C1046.22 442.36 1043.73 439.812 1041.94 436.508C1040.2 433.204 1039.33 429.284 1039.33 424.748C1039.33 420.212 1040.2 416.32 1041.94 413.072C1043.73 409.768 1046.22 407.22 1049.41 405.428C1052.61 403.636 1056.39 402.74 1060.75 402.74C1065.12 402.74 1068.9 403.636 1072.09 405.428C1075.34 407.22 1077.83 409.768 1079.57 413.072C1081.36 416.32 1082.26 420.212 1082.26 424.748C1082.26 429.284 1081.36 433.204 1079.57 436.508C1077.83 439.812 1075.34 442.36 1072.09 444.152C1068.9 445.944 1065.12 446.84 1060.75 446.84ZM1060.75 438.776C1064.06 438.776 1066.69 437.628 1068.65 435.332C1070.61 432.98 1071.59 429.452 1071.59 424.748C1071.59 420.044 1070.61 416.544 1068.65 414.248C1066.69 411.952 1064.06 410.804 1060.75 410.804C1057.45 410.804 1054.82 411.952 1052.86 414.248C1050.9 416.544 1049.92 420.044 1049.92 424.748C1049.92 429.452 1050.9 432.98 1052.86 435.332C1054.82 437.628 1057.45 438.776 1060.75 438.776ZM1092.99 446V414.164C1092.99 412.428 1092.94 410.664 1092.83 408.872C1092.71 407.08 1092.55 405.316 1092.32 403.58H1102.49L1103.33 411.98H1102.32C1103.66 409.012 1105.65 406.744 1108.28 405.176C1110.91 403.552 1113.97 402.74 1117.44 402.74C1122.42 402.74 1126.17 404.14 1128.69 406.94C1131.21 409.74 1132.47 414.108 1132.47 420.044V446H1121.97V420.548C1121.97 417.132 1121.3 414.696 1119.96 413.24C1118.67 411.728 1116.71 410.972 1114.08 410.972C1110.83 410.972 1108.25 411.98 1106.35 413.996C1104.45 416.012 1103.49 418.7 1103.49 422.06V446H1092.99ZM1160.41 446.84C1156.77 446.84 1153.41 446.42 1150.33 445.58C1147.3 444.684 1144.75 443.452 1142.68 441.884L1145.62 434.828C1147.75 436.284 1150.1 437.404 1152.68 438.188C1155.25 438.972 1157.86 439.364 1160.49 439.364C1163.29 439.364 1165.36 438.888 1166.71 437.936C1168.11 436.984 1168.81 435.696 1168.81 434.072C1168.81 432.784 1168.36 431.776 1167.46 431.048C1166.62 430.264 1165.25 429.676 1163.35 429.284L1154.95 427.688C1151.36 426.904 1148.62 425.56 1146.71 423.656C1144.87 421.752 1143.94 419.26 1143.94 416.18C1143.94 413.548 1144.64 411.224 1146.04 409.208C1147.5 407.192 1149.54 405.624 1152.17 404.504C1154.86 403.328 1158 402.74 1161.58 402.74C1164.72 402.74 1167.66 403.16 1170.4 404C1173.2 404.84 1175.55 406.1 1177.46 407.78L1174.43 414.584C1172.7 413.184 1170.71 412.092 1168.47 411.308C1166.23 410.524 1164.05 410.132 1161.92 410.132C1159.01 410.132 1156.88 410.664 1155.53 411.728C1154.19 412.736 1153.52 414.052 1153.52 415.676C1153.52 416.908 1153.91 417.944 1154.69 418.784C1155.53 419.568 1156.82 420.156 1158.56 420.548L1166.96 422.144C1170.71 422.872 1173.54 424.16 1175.44 426.008C1177.4 427.8 1178.38 430.264 1178.38 433.4C1178.38 436.2 1177.63 438.608 1176.11 440.624C1174.6 442.64 1172.5 444.18 1169.81 445.244C1167.13 446.308 1163.99 446.84 1160.41 446.84ZM1204.34 446.84C1199.13 446.84 1195.24 445.412 1192.66 442.556C1190.08 439.7 1188.8 435.332 1188.8 429.452V403.58H1199.3V429.368C1199.3 432.504 1199.94 434.828 1201.23 436.34C1202.52 437.796 1204.48 438.524 1207.11 438.524C1210.08 438.524 1212.48 437.516 1214.33 435.5C1216.24 433.484 1217.19 430.824 1217.19 427.52V403.58H1227.69V446H1217.44V437.348H1218.62C1217.38 440.372 1215.51 442.724 1212.99 444.404C1210.52 446.028 1207.64 446.84 1204.34 446.84ZM1240.77 446V384.176H1251.27V446H1240.77ZM1282.49 446.84C1277.45 446.84 1273.65 445.524 1271.07 442.892C1268.49 440.26 1267.21 436.312 1267.21 431.048V411.476H1259.06V403.58H1267.21V392.744L1277.71 390.056V403.58H1289.05V411.476H1277.71V430.376C1277.71 433.288 1278.27 435.332 1279.39 436.508C1280.51 437.684 1282.05 438.272 1284.01 438.272C1285.07 438.272 1285.97 438.188 1286.69 438.02C1287.48 437.852 1288.23 437.628 1288.96 437.348V445.664C1288.01 446.056 1286.95 446.336 1285.77 446.504C1284.65 446.728 1283.56 446.84 1282.49 446.84ZM1297.86 446V403.58H1308.36V446H1297.86ZM1297.27 395.6V385.352H1308.95V395.6H1297.27ZM1321.44 446V414.164C1321.44 412.428 1321.38 410.664 1321.27 408.872C1321.16 407.08 1320.99 405.316 1320.77 403.58H1330.93L1331.77 411.98H1330.76C1332.11 409.012 1334.1 406.744 1336.73 405.176C1339.36 403.552 1342.41 402.74 1345.88 402.74C1350.87 402.74 1354.62 404.14 1357.14 406.94C1359.66 409.74 1360.92 414.108 1360.92 420.044V446H1350.42V420.548C1350.42 417.132 1349.75 414.696 1348.4 413.24C1347.12 411.728 1345.16 410.972 1342.52 410.972C1339.28 410.972 1336.7 411.98 1334.8 413.996C1332.89 416.012 1331.94 418.7 1331.94 422.06V446H1321.44ZM1393.39 464.816C1389.47 464.816 1385.91 464.396 1382.72 463.556C1379.59 462.716 1376.79 461.428 1374.32 459.692L1376.59 452.132C1378.21 453.196 1379.89 454.064 1381.63 454.736C1383.37 455.408 1385.16 455.912 1387.01 456.248C1388.85 456.584 1390.73 456.752 1392.63 456.752C1396.55 456.752 1399.47 455.772 1401.37 453.812C1403.33 451.908 1404.31 449.164 1404.31 445.58V435.416H1405.15C1404.25 438.328 1402.43 440.652 1399.69 442.388C1397 444.124 1393.89 444.992 1390.37 444.992C1386.56 444.992 1383.23 444.152 1380.37 442.472C1377.57 440.736 1375.39 438.272 1373.82 435.08C1372.25 431.888 1371.47 428.136 1371.47 423.824C1371.47 419.512 1372.25 415.788 1373.82 412.652C1375.39 409.46 1377.57 407.024 1380.37 405.344C1383.23 403.608 1386.56 402.74 1390.37 402.74C1393.95 402.74 1397.06 403.608 1399.69 405.344C1402.38 407.024 1404.17 409.32 1405.07 412.232L1404.31 411.728L1405.15 403.58H1415.31C1415.09 405.316 1414.92 407.08 1414.81 408.872C1414.7 410.664 1414.64 412.428 1414.64 414.164V444.32C1414.64 450.984 1412.82 456.052 1409.18 459.524C1405.6 463.052 1400.33 464.816 1393.39 464.816ZM1393.22 436.928C1396.58 436.928 1399.24 435.808 1401.2 433.568C1403.22 431.272 1404.23 428.024 1404.23 423.824C1404.23 419.624 1403.22 416.404 1401.2 414.164C1399.24 411.924 1396.58 410.804 1393.22 410.804C1389.81 410.804 1387.09 411.924 1385.07 414.164C1383.06 416.404 1382.05 419.624 1382.05 423.824C1382.05 428.024 1383.06 431.272 1385.07 433.568C1387.09 435.808 1389.81 436.928 1393.22 436.928Z" fill="#453940"/>
</svg>
