<svg width="93" height="46" viewBox="0 0 93 46" fill="none" xmlns="http://www.w3.org/2000/svg">
<g clip-path="url(#clip0_921_33)">
<path fill-rule="evenodd" clip-rule="evenodd" d="M36.7028 14.9888C38.4161 16.6969 39.273 19.2671 39.273 22.6998V36.0024H32.53V23.7013C32.6455 22.2354 32.2409 20.7755 31.3866 19.5788C30.5678 18.645 29.3632 18.1427 28.1235 18.2184C26.7079 18.1479 25.3331 18.7069 24.3682 19.7456C23.3344 21.0457 22.8278 22.6873 22.9495 24.3439V36.0274H16.2732V23.7013C16.2732 20.046 14.8045 18.2184 11.8671 18.2184C10.4621 18.1556 9.10075 18.7139 8.14499 19.7456C7.13983 21.046 6.64945 22.6712 6.76808 24.3107V35.9938H0V12.7607H6.43414V15.4395C7.30329 14.4594 8.3853 13.6915 9.59723 13.1944C10.922 12.6598 12.341 12.396 13.7698 12.4186C15.3095 12.3969 16.834 12.7281 18.2262 13.3865C19.5132 14.0202 20.6055 14.9888 21.389 16.1907C22.3451 14.9769 23.5823 14.0141 24.994 13.3865C26.4941 12.7116 28.1232 12.3728 29.7676 12.3932C32.3381 12.2661 34.8474 13.2051 36.7028 14.9888Z" fill="#243642"/>
<path fill-rule="evenodd" clip-rule="evenodd" d="M56.4212 31.0121C57.3178 30.4821 57.9936 29.6468 58.3242 28.6587V26.2888H53.6591C50.8965 26.2888 49.4863 27.1903 49.4863 29.0094C49.4601 29.8212 49.8422 30.5922 50.5046 31.0624C51.3283 31.6059 52.3063 31.8693 53.2917 31.8132C54.3755 31.8379 55.4447 31.5604 56.3794 31.0121H56.4212ZM62.1713 14.9893C64.1017 16.6974 65.0669 19.2813 65.0669 22.7421V36.0028H58.7161V33.1151C57.448 35.2682 55.0861 36.3474 51.6311 36.3532C50.0337 36.3929 48.4473 36.0824 46.9825 35.4435C45.7606 34.9166 44.7173 34.0471 43.9783 32.9401C43.2952 31.8547 42.947 30.5919 42.9771 29.3098C42.9003 27.3107 43.8152 25.4026 45.422 24.2108C47.0411 22.9757 49.5949 22.3499 52.933 22.3499H58.2909C58.3687 21.077 57.8762 19.8351 56.947 18.9617C55.7997 18.088 54.3709 17.6662 52.933 17.7766C51.6912 17.7757 50.4573 17.973 49.2777 18.3606C48.1774 18.6967 47.1475 19.2313 46.24 19.9379L43.8115 15.2229C45.197 14.2711 46.7398 13.5703 48.368 13.1534C50.1456 12.6615 51.9818 12.4141 53.826 12.419C57.4255 12.419 60.2073 13.2757 62.1713 14.9893Z" fill="#243642"/>
<path fill-rule="evenodd" clip-rule="evenodd" d="M63.9844 43.4377L65.8035 38.5559C66.6419 39.1246 67.6366 39.4165 68.6494 39.3905C69.4207 39.4415 70.1721 39.1335 70.6857 38.5559C71.2197 37.8349 71.4801 36.9475 71.42 36.0524V12.7607H78.1546V35.9606C78.2842 38.3247 77.4504 40.64 75.8426 42.378C74.3074 43.9467 72.1544 44.7314 69.3838 44.7314C67.4948 44.8509 65.6138 44.4002 63.9844 43.4377Z" fill="#243642"/>
<path fill-rule="evenodd" clip-rule="evenodd" d="M83.5117 36.0024H90.2548V12.7607H83.5117V36.0024Z" fill="#243642"/>
<path fill-rule="evenodd" clip-rule="evenodd" d="M72.1002 8.43837C71.4095 7.758 71.0222 6.77998 71.0396 5.75957C71.0253 4.73976 71.4117 3.76296 72.1002 3.08045C72.8548 2.34183 73.8411 1.95574 74.8499 2.00423C75.8495 1.95574 76.8294 2.32536 77.5921 3.03898C78.2794 3.68642 78.6684 4.63821 78.6526 5.63423C78.6767 6.68757 78.2908 7.70188 77.5921 8.4216C76.0003 9.87933 73.6919 9.87933 72.1002 8.4216V8.43837Z" fill="#C94DB5"/>
<path fill-rule="evenodd" clip-rule="evenodd" d="M84.1455 8.43837C83.4532 7.758 83.0652 6.77998 83.0826 5.75957C83.0685 4.73976 83.4557 3.76296 84.1455 3.08045C84.8977 2.34579 85.8798 1.96032 86.8852 2.00423C87.887 1.95574 88.868 2.32536 89.6327 3.03898C90.3214 3.68642 90.7108 4.63821 90.6952 5.63423C90.7232 6.68849 90.3361 7.70463 89.6327 8.4216C88.0404 9.87811 85.7297 9.87811 84.1377 8.4216L84.1455 8.43837Z" fill="#C94DB5"/>
</g>
<defs>
<clipPath id="clip0_921_33">
<rect width="91" height="43" fill="white" transform="translate(0 2)"/>
</clipPath>
</defs>
</svg>
