<svg width="175" height="46" viewBox="0 0 175 46" fill="none" xmlns="http://www.w3.org/2000/svg">
<path d="M16.6959 21.5743C14.7419 17.185 11.4759 13.3125 8.63811 9.48157C5.89358 9.1846 3.85167 11.2634 2.3861 13.3422C3.29178 15.2547 5.38859 17.3216 6.57422 19.3232C5.00985 19.4658 3.20945 19.4896 1.71644 20.3983C-0.0290771 21.3545 -0.649337 24.0214 0.832696 25.5359C2.02931 27.3177 7.41953 33.9521 9.53282 35.5022C17.2174 42.202 12.0413 28.8501 10.4604 26.0883C13.2214 26.2545 17.5523 25.8626 16.6959 21.5743Z" fill="#43C3AC"/>
<path d="M33.625 12.9611V9L37.9172 10.493V12.9611" fill="#222222"/>
<path d="M33.6406 30.7743V14.5947H37.9328V30.7743H33.6406Z" fill="#222222"/>
<path d="M44.8317 33.3636C45.5017 33.7145 46.2512 33.8887 47.0084 33.8694C47.6061 33.9075 48.2052 33.8186 48.7656 33.6084C49.326 33.3983 49.8348 33.0717 50.2582 32.6506C51.0267 31.8381 51.4089 30.5015 51.4048 28.6408V28.1654H51.3129C50.8156 28.9457 50.1202 29.5819 49.2966 30.0099C48.4731 30.4379 47.5505 30.6424 46.6221 30.603C45.2468 30.6299 43.8916 30.2731 42.7101 29.5731C41.5646 28.8839 40.6365 27.8896 40.0305 26.7029C39.401 25.3959 39.0742 23.9653 39.0742 22.5163C39.0742 21.0673 39.401 19.6368 40.0305 18.3298C40.6246 17.1465 41.54 16.1522 42.6733 15.4594C43.8305 14.7657 45.1605 14.4089 46.5117 14.4296C47.4713 14.422 48.4175 14.6524 49.2648 15.0999C50.0989 15.5327 50.7921 16.1921 51.2638 17.0012H51.3558V15.752L55.6479 14.85V28.1593C55.7175 29.9872 55.3075 31.8017 54.4584 33.4246C53.7581 34.7031 52.6733 35.7321 51.3558 36.3679C50.033 36.9786 48.5894 37.2868 47.131 37.2699C45.6589 37.3131 44.1984 36.9994 42.8757 36.3558C41.7613 35.8032 40.8277 34.9472 40.1838 33.8877L43.1883 31.8523C43.6193 32.4686 44.1801 32.9842 44.8317 33.3636ZM50.2152 25.6608C50.9846 24.7913 51.3885 23.6612 51.3434 22.5041C51.3919 21.3575 50.9869 20.2377 50.2152 19.384C49.843 19.0004 49.3967 18.6955 48.9031 18.487C48.4095 18.2787 47.8788 18.1713 47.3426 18.1713C46.8063 18.1713 46.2756 18.2787 45.7821 18.487C45.2884 18.6955 44.8422 19.0004 44.4699 19.384C43.6982 20.2377 43.2933 21.3575 43.3417 22.5041C43.2966 23.6612 43.7005 24.7913 44.4699 25.6608C44.8371 26.053 45.2817 26.3658 45.7759 26.5797C46.2702 26.7935 46.8035 26.9039 47.3426 26.9039C47.8816 26.9039 48.4149 26.7935 48.9092 26.5797C49.4034 26.3658 49.848 26.053 50.2152 25.6608Z" fill="#222222"/>
<path d="M61.2749 16.9714C61.75 16.1739 62.4374 15.5223 63.2615 15.0884C64.1904 14.6479 65.2131 14.4387 66.2415 14.479C67.0942 14.4301 67.9473 14.5686 68.7399 14.8846C69.5327 15.2006 70.2455 15.6863 70.828 16.3072C71.9742 17.6875 72.5603 19.4436 72.4713 21.2311V30.9876H68.1791V22.5657C68.2313 21.4443 67.9359 20.3339 67.333 19.3847C67.0395 18.9757 66.645 18.6487 66.1875 18.4353C65.73 18.2218 65.2249 18.129 64.7209 18.1658C64.2076 18.1329 63.6942 18.2269 63.2265 18.4396C62.7589 18.6524 62.3516 18.977 62.0413 19.3847C61.378 20.4274 61.0626 21.6514 61.14 22.8826V30.9876H56.8477V9.46973L61.14 10.6885V16.9714H61.2749Z" fill="#222222"/>
<path d="M79.896 10.755V14.8197H83.2316V18.1897H79.896V30.9871H75.6038V18.1897H73.0469L74.2733 14.838H75.6283V9.28027L79.896 10.755Z" fill="#222222"/>
<path d="M91.8079 31.3897C90.2009 31.4179 88.6132 31.0427 87.1906 30.2989C85.8693 29.5988 84.7726 28.5428 84.0267 27.2519C83.2917 25.9135 82.9039 24.4142 82.8985 22.8894C82.8932 21.3647 83.2704 19.8626 83.9961 18.5192C84.7281 17.2458 85.8081 16.2043 87.111 15.5148C88.538 14.7653 90.1328 14.3898 91.7468 14.424C92.9107 14.4068 94.0633 14.6505 95.1189 15.137V19.0555C94.1201 18.4322 92.9562 18.1202 91.7774 18.1597C91.1578 18.1297 90.5391 18.2299 89.9606 18.4536C89.383 18.6772 88.8587 19.0193 88.4236 19.4577C87.582 20.3733 87.1416 21.5831 87.1967 22.8215C87.1687 23.4614 87.2718 24.1002 87.4999 24.6993C87.7271 25.2985 88.0749 25.8456 88.5214 26.3073C88.9802 26.7551 89.5263 27.1042 90.1267 27.3327C90.727 27.5613 91.3684 27.6645 92.0098 27.6358C93.1135 27.6364 94.2023 27.3929 95.1984 26.9228V30.7194C94.1289 31.1784 92.9728 31.4069 91.8079 31.3897Z" fill="#222222"/>
<path d="M100.741 16.9714C101.216 16.1739 101.904 15.5223 102.728 15.0884C103.657 14.6479 104.68 14.4387 105.708 14.479C106.561 14.4301 107.414 14.5686 108.206 14.8846C108.999 15.2006 109.712 15.6863 110.295 16.3072C111.439 17.6881 112.022 19.4444 111.932 21.2311V30.9876H107.639V22.5657C107.692 21.4443 107.396 20.3339 106.793 19.3847C106.499 18.9752 106.103 18.648 105.644 18.4346C105.186 18.2211 104.68 18.1285 104.175 18.1658C103.662 18.1328 103.15 18.2269 102.684 18.4396C102.217 18.6524 101.811 18.9771 101.501 19.3847C100.838 20.4274 100.523 21.6514 100.6 22.8826V30.9876H96.3086V9.46973L100.6 10.6885V16.9714H100.741Z" fill="#222222"/>
<path d="M123.399 30.7002C122.492 31.1792 121.476 31.4164 120.45 31.3888C119.087 31.4003 117.75 31.033 116.586 30.3285C115.391 29.6002 114.418 28.5614 113.772 27.3241C113.05 25.9594 112.687 24.4353 112.717 22.8938C112.687 21.3577 113.039 19.838 113.741 18.4695C114.373 17.2448 115.335 16.2187 116.519 15.5063C117.704 14.7938 119.065 14.423 120.45 14.4353C121.463 14.4196 122.467 14.6387 123.381 15.0752C124.245 15.4969 124.978 16.1434 125.502 16.946H125.594V14.2891L129.886 15.7821V31.0171H125.643V28.5795H125.551C125.02 29.4515 124.281 30.1799 123.399 30.7002ZM123.503 27.0438C124.158 26.6294 124.688 26.0459 125.036 25.3558C125.417 24.5995 125.608 23.7634 125.594 22.9182C125.637 21.6725 125.198 20.4579 124.368 19.5238C123.973 19.1045 123.496 18.77 122.966 18.5414C122.436 18.3129 121.864 18.195 121.287 18.195C120.708 18.195 120.137 18.3129 119.607 18.5414C119.077 18.77 118.6 19.1045 118.206 19.5238C117.375 20.4579 116.936 21.6725 116.979 22.9182C116.966 23.7634 117.157 24.5995 117.537 25.3558C117.885 26.0459 118.415 26.6294 119.07 27.0438C119.738 27.4424 120.501 27.653 121.281 27.653C122.059 27.653 122.823 27.4424 123.491 27.0438H123.503Z" fill="#222222"/>
<path d="M135.277 17.3062C135.719 16.451 136.418 15.7542 137.277 15.3134C138.274 14.8728 139.362 14.6743 140.452 14.7345L142.905 14.765L142.175 15.7522C141.953 16.0418 141.747 16.3451 141.563 16.6602C141.311 17.0929 141.108 17.4646 140.949 17.7815L140.434 18.8297C138.631 18.8297 137.313 19.1933 136.479 19.9205C135.645 20.6477 135.236 21.9295 135.253 23.7659V30.9872H130.961V15.8192L135.173 14.1982V17.3062H135.277Z" fill="#222222"/>
<path d="M146.602 33.3636C147.274 33.7146 148.026 33.8887 148.785 33.8695C149.383 33.9073 149.982 33.818 150.542 33.6079C151.102 33.3977 151.611 33.0714 152.035 32.6507C152.795 31.8382 153.175 30.5016 153.175 28.6408V28.1655H153.059C152.563 28.9471 151.868 29.5843 151.044 30.0125C150.22 30.4406 149.297 30.6443 148.368 30.6031C146.993 30.6299 145.637 30.2731 144.456 29.5732C143.31 28.884 142.382 27.8896 141.777 26.703C141.147 25.396 140.82 23.9654 140.82 22.5164C140.82 21.0674 141.147 19.6368 141.777 18.3298C142.371 17.145 143.289 16.1504 144.425 15.4595C145.58 14.7651 146.908 14.4081 148.258 14.4296C149.217 14.4221 150.164 14.6525 151.011 15.1C151.845 15.5343 152.54 16.1932 153.016 17.0013H153.102V15.752L157.394 14.8501V28.1594C157.471 30.0016 157.061 31.8317 156.205 33.4673C155.505 34.7441 154.422 35.7728 153.108 36.4106C151.783 37.0205 150.337 37.3286 148.877 37.3126C147.405 37.3551 145.945 37.0414 144.622 36.3985C143.509 35.8442 142.575 34.9886 141.93 33.9304L144.941 31.895C145.38 32.4997 145.947 33.001 146.602 33.3636ZM151.986 25.6609C152.755 24.7914 153.159 23.6612 153.114 22.5042C153.162 21.3576 152.757 20.2378 151.986 19.384C151.614 19.0005 151.167 18.6955 150.673 18.4871C150.18 18.2788 149.649 18.1714 149.113 18.1714C148.577 18.1714 148.047 18.2788 147.553 18.4871C147.059 18.6955 146.613 19.0005 146.24 19.384C145.469 20.2378 145.064 21.3576 145.112 22.5042C145.067 23.6612 145.471 24.7914 146.24 25.6609C146.607 26.0531 147.052 26.3658 147.547 26.5798C148.04 26.7936 148.574 26.904 149.113 26.904C149.652 26.904 150.186 26.7936 150.679 26.5798C151.174 26.3658 151.619 26.0531 151.986 25.6609Z" fill="#222222"/>
<path d="M159.403 18.5311C160.044 17.2862 161.023 16.2452 162.23 15.5268C163.491 14.7853 164.934 14.4075 166.399 14.436C167.865 14.3924 169.312 14.7758 170.563 15.539C171.698 16.2538 172.602 17.2775 173.169 18.4885C173.757 19.7457 174.055 21.118 174.039 22.5044V23.0651C174.049 23.3246 174.028 23.5843 173.978 23.839H162.726C162.814 24.9237 163.271 25.9465 164.02 26.7397C164.668 27.337 165.498 27.7012 166.379 27.7742C167.259 27.8471 168.139 27.6245 168.876 27.142C169.505 26.6934 169.967 26.0505 170.189 25.3138H173.868C173.833 25.6849 173.773 26.0533 173.69 26.4168C173.62 26.6829 173.529 26.9437 173.42 27.1968C172.859 28.454 171.932 29.5152 170.759 30.2438C169.491 31.0269 168.021 31.427 166.528 31.3956C165.026 31.4251 163.543 31.0526 162.236 30.3169C161.014 29.6112 160.025 28.5673 159.391 27.3126C158.704 25.9221 158.364 24.3881 158.397 22.8396C158.371 21.3432 158.717 19.8633 159.403 18.5311ZM169.827 21.3405C169.808 20.4285 169.442 19.5576 168.803 18.9029C168.165 18.2815 167.31 17.9283 166.417 17.917C165.524 17.9056 164.662 18.2369 164.008 18.842C163.349 19.5336 162.921 20.4103 162.781 21.3527L169.827 21.3405Z" fill="#222222"/>
<path d="M25.6236 17.3062C26.0651 16.4493 26.7665 15.7522 27.6287 15.3134C28.6239 14.8721 29.7108 14.6736 30.7988 14.7345L33.2514 14.765L32.5156 15.7522C32.2924 16.0418 32.0875 16.3451 31.9024 16.6602C31.651 17.0929 31.4488 17.4646 31.2893 17.7815L30.7742 18.8297C28.9715 18.8297 27.6532 19.1933 26.8193 19.9205C25.9854 20.6477 25.5766 21.9295 25.593 23.7659V30.9872H21.3008V15.8192L25.5072 14.1982V17.3062H25.6236Z" fill="#222222"/>
</svg>
